<svg xmlns="http://www.w3.org/2000/svg" viewBox="0 0 665.39 612"><defs><style>.b7567a61-9182-4f2e-bd51-9ffa67bd557b{fill:#bbae7f;}.e348b6ad-81b6-4960-9d2b-35f7fa292a74{fill:#141c4d;}.a8e972d7-2a65-41af-8cb1-fb920b73b9ff{fill:#151c4d;}</style></defs><g id="a15dbad8-335b-4f69-bee3-4c0d20dc936e" data-name="Layer 1"><path class="b7567a61-9182-4f2e-bd51-9ffa67bd557b" d="M261.32,522.12l-24.19-10.24,6.51-2.32,18.61-2.32,8.37-2.33,7-2.33,1.86-4.18-3.26-6-7-6.05-25.11-4.65L226,478.86,233,464l13-24.34,7.9-18.91,7-17.67-19.53-2.8-33,.47-34,6.51-15.81,9.3-1.86,10.7.93,13.95,13.49,12.56,15.81,13-4.65,8.37-66.51,97.67S20.4,533.75,14.58,467.47s41.86-129.4,184.88-165.86c0,0,61.39-10.64,81.86-14.37a103.88,103.88,0,0,1,37.2,0l21.4-5.57,13,26,40.93,42.79,80.93-68.82-6.51-11.17,13.95-8.37s11.44,25,37.81,39.48,65.44,39.24,88.7,76.79,66,111.86,30.69,151.62-67,17.68-80,13-67-40-67-40l-4.65-7.45-4.65-1.85L442.24,598.39l-270.73-1.83,5.62-11.66s34.42,12.56,43.72,5.12,6.52-11.16-3.25-19.07c-8-6.5-15.71-5.14-12-5.4,5.58-.37,14.32,3.54,14.32,3.54l14,5.78,11.27-5.22,2.6-7.81-20.46-18.33,23.25,1.39,15.44-3.16,3.16-13.11Z"/><path class="e348b6ad-81b6-4960-9d2b-35f7fa292a74" d="M263.12,486.42c-4.44-.09-6.63,1.51-8.31,4.7s-.72,6.38,1.21,9.1c4.34,6.12,14,6,18.46,0a6.86,6.86,0,0,0,.15-8.51c-3-3.81-5.41-5.38-11.51-5.26M212.54,590.29c4.31,0,6.92-.49,9-1.91,2.84-2,3.11-4.76,1.77-8-2.94-7-13.76-10.17-20-5.89-2.84,2-4,5.06-2.93,8a12.38,12.38,0,0,0,12.23,7.77m21.27-19.1a19.46,19.46,0,0,0,4.29,0c6-.87,8.7-6.48,5.61-11.53-1.48-2.41-4.08-6.17-7.53-7-6.55-1.63-12.94-.05-14.68,6.47-.81,3-.37,5.45,1.85,7.44A17.29,17.29,0,0,0,233.81,571.19ZM398.06,214.32c4.44.09,6.95-1.85,8-6.22,1.43-5.75-2.89-13.4-8.51-15.08-5.92-1.77-11.9,2.28-12.07,8.17-.18,6.36,6.18,13,12.55,13.13M250.88,523c-.41,0-1.1,0-1.76.17-3.77.65-7.35,3.83-7.85,7.06-.62,4,1.34,6.35,3.9,9a11.67,11.67,0,0,0,7.85,3.88c3.69.5,8.82.07,11.59-2.37a5.48,5.48,0,0,0,1.86-5C265.93,528,259,523.48,250.88,523m91-409.64c-7.28-4.9-12.74-3.23-15.52,4.43a14.84,14.84,0,0,0-.54,2c-3.34,14.87.91,28.09,9.17,40.23,2.22,3.26,7.9,7.69,12.36,8.27-1.27-7.16-.95-6.51-1.82-10.46-8.44,1-13.85-13.45-15.12-22.4-.49-3.43-.54-13.43,2.43-15.59,2.81-2,5.24-1.28,8.56,1.15.89.65.25-5.81.48-7.61m5.44-12.62c-.63,10.67,7.54,21.74,16.86,25.36,11.88,4.6,22.94,3.09,33-4.32,9.22-6.83,14.46-16.07,12.51-27.92-2-12.42-10-20.08-21.83-23.1a31.62,31.62,0,0,0-24.24,3.75c-10,5.88-15.32,14.73-16.26,26.23m135.79,2.58c-.16-8.92-3.41-16.73-10.93-21.46-15.23-9.57-36.41-8.52-48.31,8.44-11.74,16.75-3.12,36.45,12.55,42.42A34.79,34.79,0,0,0,458,133.89c13.11-3.31,25.46-15.78,25.12-30.61M259.34,404.2c-8.5-.61-16.13-1.28-23.78-1.68-17-.88-33.85,0-50.39,4.26-8.15,2.12-15.95,5.11-22.37,10.88-5.26,4.74-7,11.24-4.11,17.63a34,34,0,0,0,6,9.39A145.11,145.11,0,0,0,178.37,457c4,3.3,8.46,6.15,12.51,9l43.38-11.51c7.88-15.8,16.18-32.47,25.08-50.32M345.69,85.29c10-14,22.05-21.39,38.49-19.6,16.92,1.84,27.3,11.22,31,28.52,1.36-2.12,2.33-3.51,3.18-5,7.21-12.47,25.55-21.57,41.57-18.06,8.88,1.94,16.28,5.73,22,12.86,3.24,4,4.53,8.73,5.92,13.48a17.42,17.42,0,0,0,.65,1.63l4.79-.43c.68-7.1,1.6-13.86,1.9-20.65.45-10.27.15-20.5-3.34-30.37-2.33-6.62-5.82-12.47-11.58-16.54-6.08-4.29-12.9-6.42-20.25-3.68-4.78,1.78-9.31,4.24-14,6.32-3.88,1.72-7.68,3.85-11.75,4.88-12,3-23,.31-32.81-7.14-10.52-8-23.86-5.69-32,2.88-11,11.59-18.71,25.11-21.89,41-.58,2.89-1.13,5.79-1.93,9.91M247.11,519a11.52,11.52,0,0,0-2.27-1.31q-9.08-2.73-18.18-5.33c-1.95-.56-4.88-1-4.63-3.23.5-2.82,3.32-1.87,5-1.61,8.73,1.39,17.4.13,26.08-.42,1.06-.06,3.08-.27,3.08-.27s-7-3.36-7.17-10.8c-.13-4.52,2-7.65,4.79-11.62-5.95-.32-10.79-1.34-17.55-1.43a103,103,0,0,1-14.39-1.19l9.3-21.8a6.45,6.45,0,0,0-1.78-.09c-12.48,3.55-25,7.09-37.41,10.77a7.21,7.21,0,0,0-3.6,2.58c-5.64,8.15-11.13,16.4-16.66,24.63-8.3,12.33-16.45,24.76-24.91,37-6.22,9-12.83,17.66-19.4,26.67,7.44,4.94,15.36,8.48,23.44,11.71s16,7.17,24.32,9.48c8.12,2.24,16.51,6.38,26,7.59-3.08-3.81-6.17-8.39-5-13,1.09-4.47,6.16-7.63,9.88-8.65-6.79-3.07-17-5.62-16.65-8.74.37-2.24,2.81-1.14,4.58-.46,6.23,2.36,12.45,4.75,18.72,7,2.16.77,4.44,1.17,7.13,1.85-5.93-9-2.1-17,7.18-20.49-6.54-4.72-21.61-8.27-21.18-11.36.31-4,24.33,4.85,37,5.81-10.17-10.08-5.66-18.88,4.39-23.23M365.78,276.55c-2.34,1.33-6.52-3.92-10-5.63-6.07-3-10.86-.11-11.45,6.59A24.06,24.06,0,0,0,346.53,289a75.74,75.74,0,0,0,14.35,22.22c9.14,9.95,18.7,19.51,28.07,29.24,1.73,1.81,3.42,3.65,5.24,5.6,1.93-1.44,3.49-2.47,4.92-3.66,6-5,11.95-10.2,18.05-15.14,16.2-13.13,32.48-26.16,48.71-39.27,1.54-1.24,2.91-2.7,4.22-3.93-2.36-5.54-4.54-10.55-6.63-15.59-3.87-9.3-7.51-18.71-11.61-27.91-3-6.72-9.05-17.85-16.12-21.2,3.72,4.28,1.3,6.33-.93,5-9.76-8.75-14.13-16.57-24.95-24.31.44,5.69,1,10.74-2.76,14.73s-8.76,4.18-14.45,2.87c1.47,2,2.41,3.47,3.47,4.8,4.25,5.35,8.57,10.65,12.8,16,1.17,1.48,3.56,3.38,1.7,5.15-1.2.93-3.36-1.51-4.65-2.53-3.07-2.45-5.17-5.25-8.37-7.52a10,10,0,0,0-10.95-.11c-3.45,2.2-5.8,5.2-5.65,9.7.15,4.34,2.15,7.86,4.44,11.29,1.09,1.64,3.5,3.25,1.29,5.19s-3.58-.72-5.11-1.87c-3.28-2.47-6.38-5.21-10.72-5.66-6.51-.67-9.55,1.79-10,8.36a9,9,0,0,0,.66,4,79.78,79.78,0,0,0,4.05,8.25c.92,1.6,1.56,2.83.17,3.86m47.73-160.73c-1.37,3-2.51,5.8-4,8.46-4.06,7.42-9.66,13.68-15.47,19.74-4.86,5.06-10,9.86-14.91,14.88-2.74,2.8-5.51,5.6-6.47,9.67s-.05,6.47,3.36,8.76,7.53,2.58,11.34,2.06c8.61-1.16,17.18-2.72,25.69-4.49,4.67-1,9.16-2.77,13.77-4,1-.26,2.62-.24,3.07.34,1.14,1.49-.22,2.5-1.44,3.17a31,31,0,0,1-5.07,2.42c-11.19,3.79-22.5,7.13-34.39,7.62a38.83,38.83,0,0,1-10.65-.94c-9.79-2.35-13.57-11-8.59-19.78,1.91-3.35,4.73-6.25,7.38-9.12,7.89-8.55,15.95-16.94,23.83-25.5a12.91,12.91,0,0,0,3.89-6.77c-9.33,8.74-19.61,12.67-31.39,11.83-12-.85-21.12-6.88-28.06-16.71,0,3.31.45,6.31.61,9.32.76,13.84,1.93,27.66,5.16,41.13,3.19,13.28,7.32,26.33,10.88,39.52,1.91,7.06,3.76,14.15,5.15,21.31,1.12,5.81,1.51,11.76,2.27,18l8.56,2.17c-2.73-6.44-1.72-11.44,2.08-16.09s8.84-5.77,15.48-5.46c-2.11-2.69-3.61-4.5-5-6.39-3.92-5.4-7.72-10.87-8.94-17.67a12.71,12.71,0,0,1,11.16-15,20.12,20.12,0,0,1,11,2c6.08,3,11.12,7.32,15.82,12.1,3.2,3.26,6.27,8.84,11.25,9.69,1.73.3,5.49.94,8.19,2.61,7.81,4.84,9.76,8.91,14.14,16.18,6.29,10.45,10,22.12,14.4,33.41L474.17,281l6.24-4.75c3.31,5.24,6.34,10.13,9.48,15,8,12.3,15.59,24.95,24.29,36.76,10.33,14,21.6,27.32,32.56,40.86,13.16,16.27,28,31,43.29,45.19a31.41,31.41,0,0,1,2.85,2.92c1.24,1.48,1.51,3-.36,4.71-.83-.3-2-.39-2.63-1-42.72-40.57-81.56-84.31-110.37-137L385.38,360c9.05,14.07,18.05,28.18,27.17,42.22a488.22,488.22,0,0,0,41.94,55.05c15.19,17.42,31.34,33.92,49.22,48.63,16,13.15,32.76,25.06,51.75,33.77,17.4,8,35.26,10.44,53.95,6.71,19.74-3.94,36.92-18.34,39.09-41.16.52-5.44.62-10.92,1.26-16.34,1.12-9.5-.61-18.73-2.87-27.76C640.51,435.65,628.77,412.57,614,391a240.47,240.47,0,0,0-32.62-38.77c-8.91-8.48-17.95-16.94-27.79-24.27-13.39-10-27.62-18.81-40.67-29.27-14.18-11.35-26.58-24.14-33.65-41.31-2.5-6.06-4.92-12.37-4.19-18.82.86-7.75,3.06-15.38,5-23,1.31-5.11,3.2-10.07,4.84-15.14-1.63-1.91-3.46-3.56-4.67-5.58a73.74,73.74,0,0,1-6.07-11.74c-1.59-4.28,0-6.84,4.34-8a52,52,0,0,0,24.77-15.66c7.86-8.65,12.33-18.83,12.56-30.63.2-10.35-7.23-17.8-16.45-16.41-2.09.32-4,1.8-6,2.62-.73.3-2,.6-2.31.26a3.81,3.81,0,0,1-.77-2.62c.18-2.08.63-4.14,1-6.18-3.39-.57-3.14,1.64-3.73,3.12-1.65,4.09-2.6,8.72-5.14,12.17C471.64,136.34,457,142,439.21,138.29c-8.25-1.73-15.31-5.87-20.09-13.14-1.95-3-3.67-6.09-5.61-9.33M357,265c0-1.91-.09-3.9,0-5.89a12.2,12.2,0,0,1,3.89-8.64c2.82-2.64,3.48-6,3.12-9.79a152,152,0,0,0-8.11-35.33c-3.09-9-4.62-18.54-6.81-27.85-.31-1.32-.47-2.67-.72-4.12-1.38-.43-2.63-.86-3.9-1.23-9.82-2.89-15.44-10.34-19.55-18.93a50.69,50.69,0,0,1-5.12-23.78c.22-5.79,1.16-11.48,4.27-16.66,2.94-4.88,6.69-7.68,12.62-6.67a18.53,18.53,0,0,0,2.69,0c.25-4.13.53-8.13.74-12.14,1.37-25.91,9.82-48.9,29-66.89C384.91,12.35,404,4.69,425.48,2.84,452.26.54,474.58,10.13,494,28c13.27,12.16,21.31,27.36,26.33,44.29,2,6.85,3.15,14,4.49,21,.38,2,.06,4.06.06,6.55-1.7.11-3.36.27-5,.33-7.69.3-15.37.62-23.06.82-2.59.06-4.35.74-4.27,4.41l32.63-.92c.16,6.21.87,12.39-.32,18.4-4.66,23.34-12.86,45.31-25.63,65.54a132.16,132.16,0,0,0-18,46.08c-2,10.43,1.49,19.61,6.42,28.41,8,14.33,19.51,25.49,32.7,35,11,7.87,22.34,15.17,33.25,23.11a268.57,268.57,0,0,1,33.45,28.69,277.68,277.68,0,0,1,30.44,35.9C630,403.43,640.76,422.27,647.78,443c5.39,15.89,9.28,32.18,8.79,49.2-.38,13.26-3,26-10.62,36.95-3.69,5.31-9.26,9.56-14.59,13.45-15.31,11.15-32.7,12.44-50.92,10.32-22.41-2.61-40.91-13.8-59-25.88-12.09-8.07-23.23-17.45-34-27.23-.74-.66-1.54-1.25-2.81-2.27-2.31,5.67-4.47,11-6.6,16.25q-14.44,35.91-28.87,71.84c-1.34,3.33-2.58,6.7-3.86,10.06a15.87,15.87,0,0,1-.71,1.93c-.88,1.64-1.65,3.67-4.11,3-1.91-.53-2.22-2.85-1-5.73,3.5-8.35,7-16.7,10.45-25.07,7.9-19.29,15.73-38.6,23.64-57.88,2.4-5.84,5-11.61,7.57-17.67-5.54-5.76-11.23-11.65-16.88-17.58A461.15,461.15,0,0,1,427,432.24c-9.54-12.92-18.7-26.15-27.59-39.53-6.14-9.24-11.48-19-17.29-28.45-3-4.88-2.16-7.83,2.8-11.07,1.71-1.12,3.43-2.21,5.46-3.52-1.13-1.25-2.09-2.36-3.1-3.41-9.25-9.62-18.75-19-27.68-28.9A102.12,102.12,0,0,1,340.2,285c-6.23,1.5-12.28,3.26-18.45,4.33-4.85.84-9.85.89-14.79,1.18-11.6.69-23.24.9-34.79,2.08-14.08,1.45-28.08,3.66-42.1,5.6-19.18,2.65-37.93,7.26-56.47,12.7a392.51,392.51,0,0,0-52.31,19.29,299.3,299.3,0,0,0-40.88,22.29c-18,11.83-34.12,25.79-46.66,43.42s-19.65,37.44-18.37,59.6A87.25,87.25,0,0,0,24,488c9.29,19.61,23.54,35.11,40.24,48.64a238.39,238.39,0,0,0,38.56,25.23c4.34,2.31,8.27,5.36,12.7,8.28l69.76-102.46c-4.44-2.85-8.84-5.39-12.93-8.35-7.26-5.25-13.79-11.22-17.92-19.43-5.46-10.82-2.82-21.11,7-28.44,8-6,17.25-9,26.81-10.87a178.48,178.48,0,0,1,41.34-3.15c9.21.39,18.42,1.08,27.57,2.18,2.45.29,5.28.45,7.26,2.2.66.59-.05,4.84-.63,6.05-2.41,5.1-5.12,10.05-7.67,15.08Q242.49,449.71,229,476.51a14.08,14.08,0,0,0-.57,1.78c6.73.47,13.28.87,19.82,1.38,7.17.55,14.32,1.35,21.07,4a22.48,22.48,0,0,1,6.54,3.9c7.35,6.43,5.82,15.95-3.26,19.71a49,49,0,0,1-11.35,2.93c-4.71.72-9.52.82-14.29,1.21-.93.07-1.86.25-3.93.53,2,1.05,3,1.59,4,2.08,4.75,2.31,9.69,4.3,14.23,7,5.84,3.45,10.12,8.2,9.82,15.67-.2,4.88-2.1,7.47-6.66,9.23-4.8,1.84-9.77,1.7-14.69,1.15-5.59-.64-11.14-1.69-16.7-2.53a15.94,15.94,0,0,0-3.42-.43,128.56,128.56,0,0,0,11.11,6.68,15,15,0,0,1,7,7c3.46,6.42.92,15.22-5.91,17.2-3.33,1-7.06.68-10.6.71a39.24,39.24,0,0,1-6-.89c.7,1.54,1.12,2.44,1.54,3.34,3.36,7.19-.12,13.84-7.91,15.49-9.3,2-18.37.65-27.4-1.57-3.78-.93-8.33-2.44-11.91-3.45-3,4.32-5,9.42-8.18,8.93-2.33-1,2.31-6.72,3.71-9.76l-51.07-22.12-6.21,8c-4.61.16-8.47-2.67-12.79-4.6-11.62-5.18-22.11-12.16-32.58-19.2-17.63-11.85-33.11-26.11-45.11-43.67C14.49,487.57,7.2,467.06,9.06,444c1.23-15.28,6.16-29.29,13.79-42.53s17.57-24.39,28.68-34.65a207.8,207.8,0,0,1,39-28,351.94,351.94,0,0,1,55-25,432.19,432.19,0,0,1,63.65-17.51c15.08-2.88,30.33-4.95,45.53-7.14,18.8-2.7,37.75-3.48,56.7-4.31,8.35-.36,16.72-1.08,24.66-4.18,2.22-.87,3.61-1.92,4.14-4.56,1.83-9.28,8.26-13.4,15.66-10.74,1.27,1,1.27.2,1.12-.38"/><path class="e348b6ad-81b6-4960-9d2b-35f7fa292a74" d="M477.85,151.4c.3-5.39,3.3-10.76,6.53-16a23.6,23.6,0,0,1,10-9.25,15.42,15.42,0,0,1,7.35-1.32c3.88.28,5.93,3.09,5.9,7a2.22,2.22,0,0,1-.06.51c-2,11.11-7.49,20-17.1,26.13a10.54,10.54,0,0,1-4.36,1.34c-5,.56-8.15-2.37-8.26-8.43"/><path class="e348b6ad-81b6-4960-9d2b-35f7fa292a74" d="M428.82,106.62c11.63,4.17,22.11,5.12,32.45,2.07l-8.33-11.83c-8.52-.61-16.28,2.83-24.12,9.76m19.09,7.77c-6.25-.79-13.1-1.14-19.43-4-4.15-1.87-4.68-4.26-1.34-7.3,12.31-11.19,28-14.47,43.59-7.55a13.53,13.53,0,0,1,6.49,5.52c1.78,3,1.82,4-.91,5.79a26.37,26.37,0,0,1-4.08,2.13c-7.58,3.34-15.59,4.8-24.32,5.42"/><path class="e348b6ad-81b6-4960-9d2b-35f7fa292a74" d="M380.24,94.26c-6.91-1.6-14.4-.57-21.9,2.41,4.35,6.49,20.07,11.7,29.32,10.22-2.19-3.72-4.47-7.59-7.42-12.63m4.22,18.38c-3.67-.88-8.8-1.57-13.5-3.36a93.9,93.9,0,0,1-14.52-7.46c-4.25-2.55-3.85-7,.62-9,15.25-6.81,32-4,43.71,6.94a8.27,8.27,0,0,1,.72.73c1.67,2.13,4.09,4.23,3.12,7.16s-4.1,2.79-6.52,3.23c-4,.72-8.1,1-13.63,1.72"/><path class="a8e972d7-2a65-41af-8cb1-fb920b73b9ff" d="M480.38,256.78s-1.63,4.88-13.49,10.23l1.95,4.88s11.77-5.34,14.33-9.76l-2.56-4.42Z"/></g></svg>