<svg xmlns="http://www.w3.org/2000/svg" viewBox="0 0 727.39 559.48"><defs><style>.e0676542-0a87-4ed8-88a4-81e7a728e6a5{fill:#d2d4e8;}.a2b23220-089d-44e6-9c96-78bc415777f9{fill:#fff;}.ac2d6de3-e638-4dd4-aba3-c3b4a315fe52{fill:#161a4d;}.fdfeb8f9-80a7-43e4-b862-a53c7a0a8889{fill:#151a4c;}</style></defs><g id="be459b93-37eb-43d4-90dd-175b73a6c394" data-name="Layer 1"><path class="e0676542-0a87-4ed8-88a4-81e7a728e6a5" d="M349.21,463.38c-2.94,29.89-5.23,60.8-10,91.3-64.45-1.27-132.41,1.8-196.86.53,1.93-6.24,8.54-17.34,11.82-22.76,6.73,2.19,15.51,4.88,22.17,6.88,7.19,2.15,13.55,3.8,21.19,2.81a14,14,0,0,0,7.2-2.75c5.92-3.85,8.77-6.13,6.64-12.91-.29-.91-.62-2.76-1.21-4.33,2.32.36,4.32.28,6.13.45,2.63.24,5.19,1.08,7.75.71,5.38-.79,9.52-3.86,9.78-8.1a10.83,10.83,0,0,0-5.5-10.66,58.77,58.77,0,0,1-11-8.38c4.71.85,10.74,2.11,15.49,2.58,4.54.44,8.59,1,13,.09,11.06-2.24,14.84-11.87,7-19.93-3-3-7-5.13-10.81-7.11-4-2.09-8.35-3.53-12.52-6.42,2.94,0,5.07-1.8,8-2.14,6-.71,10.47-.49,16.24-2,9.93-2.65,12.79-12.3,4.9-18.52-5.1-4-11.31-5.42-17.63-5.92-5.32-.43-10.68-.25-16-.54-3.33-.18-8.54.07-13-.45,1.91-3.82,3.55-8.66,5.16-11.74,9.8-18.9,19.12-37,29-55.85,2.7-5.17,3.21-5.57-2.39-6.42-25.57-3.84-48.63-5-74,1.58-8.08,2.08-14.47,4.07-20.36,10.32-6.14,6.53-9.1,13.07-5,21.22,5.33,10.64,13.85,18.82,23.57,24.91,2.24,1.41,6.66,2.65,9.68,4.33-20.78,30.91-43,62.25-65.22,91.89a344.58,344.58,0,0,1-59.19-36.79c-14.69-11.41-26.06-26.09-34.81-42.37-14.14-26.33-10.82-51.7,6.24-75.81C38,342,56.07,328.34,76,317c36.71-20.85,76.34-34.13,117.3-43.52,25-5.72,50.23-10.44,75.85-12.49,20.49-1.64,41.75-6.53,62.28-7.51,17.44-.83,34.19,2.28,51.65,2.34,11.36,0,22.71.9,34.31,1.41-1.38,7.64-3.08,14.92-4,22.29-2.82,23.75-3.08,47.44,5.17,70.31,8.33,23.05,22.22,41.31,46.18,50.15,20.24,7.47,36.67,2.82,54.31-8.56,20.53-13.25,33.3-32.73,42.69-54.72a149.18,149.18,0,0,0,10.71-39.88c.24-1.89.88-3.72,1.57-6.54,30.1,2.81,62.53,6.6,93.1,9.45.64,4,1.61,8,1.86,12,1,15.77,1,31.55-1.95,47.12-4.78,25.39-13,49.62-25.85,72.14-19,33.42-44.8,60-79.51,77.31-18.85,9.4-38.82,14.3-59.86,16.06a169.4,169.4,0,0,1-59.57-5.88c-25.37-7-47.92-17.08-68.14-33.81-5.95-4.93-12.64-10.75-18.4-15.92-1.75-1.56-1.94-3.75-3.8-5.19-.69.23-2.07-.41-2.76-.19"/><path class="a2b23220-089d-44e6-9c96-78bc415777f9" d="M381.38,122.6a66.08,66.08,0,0,0-.76-8.34c-.55-2.5-1.09-5.37-4.4-5.9s-4.83,1.79-6.33,3.94a13.3,13.3,0,0,0-1.94,4.6A124.77,124.77,0,0,0,365.27,131a83.69,83.69,0,0,0-.07,13.62c.19,2.78,1.93,5.48,4.86,5.31,1.95-.11,4.26-1.89,5.54-3.58a18.48,18.48,0,0,0,3-7.19c1.17-5.61,1.9-11.32,2.74-16.57"/><path class="ac2d6de3-e638-4dd4-aba3-c3b4a315fe52" d="M449.26,38A62.75,62.75,0,0,0,405.66,7.4C374.7,2,329.06,11.06,306.25,38s-44.82,63.56-27.71,131.19,77.42,67.64,88,67.64,41.56-13.86,40.74-37.89-14.67-34.23-40.74-34.64c-15.62-.24-12.52-52.37-5.7-58.06,3.21-2.67,16.09-19.86,24.75-4.58s4.58,10.19,4.58,10.19,37.18-3.57,59.08-73.85"/><path class="ac2d6de3-e638-4dd4-aba3-c3b4a315fe52" d="M685.53,144.46c-.77.5-1.73.39-1.43-.49,3.54-10.47,8.19-16.55,16.1-22.93a26.13,26.13,0,0,1,5.12-3c6-2.63,11-.28,12.19,6.25.75,4.12.4,6.88-.29,11a39.63,39.63,0,0,1-7.79,18,1,1,0,0,1-1.78-.26C704.57,140.49,695.42,139.29,685.53,144.46Zm26.06,28.71c2.08,3.35.61,6.49-.93,9.56-3.25,6.43-7.76,11.45-14.56,14.44a1,1,0,0,1-1.44-.89c1-10.25-2.35-15.2-10.68-14.18-2.63.32-3.07-.38-2.39-1A38.77,38.77,0,0,1,698.27,171a22.84,22.84,0,0,1,3.52-.7C706,169.75,709.83,170.09,711.59,173.17Zm1.56,44.63a48.07,48.07,0,0,1-6.45,15.93c-3.41,5.72-8.12,10.73-12.69,15.65-7.72,8.31-16.07,16-23.56,24.52-3.93,4.45-6.68,10-9.82,15.05a41,41,0,0,0-2.39,5.11,1,1,0,0,1-1,.62l-64.86-5a1.06,1.06,0,0,1-1-1.06c0-3.81.17-7.27,0-10.71-.58-9.22-2.48-18.07-7.37-26.13-2.36-3.9-4.12-8.16-6.33-12.17-8.88-16.15-5.33-31.17,5.8-44.16a90.25,90.25,0,0,1,41.81-27.47,10.74,10.74,0,0,1,2.42-.39,1,1,0,0,1,1,1.57c-11.39,16.86-2.28,29.46,12.44,28.12a1,1,0,0,1,.67,1.85C636,204,629.53,207.31,623,210.39c-6.11,2.9-12.33,4.48-19.08,7.1-2.5,1-1.83,3.55.81,3.24,11.52-1.39,31.26-10.45,48.2-24.52a1,1,0,0,1,1.72.76,9.25,9.25,0,0,1-.1,2.06c-3.2,16.79-6.51,33.57-9.65,50.37-.38,2-.56,2.83-.94,5.72-.26,1.92,1.26,1.87,1.77,1.94,5,.74,9.68,1.18,14.22,2.34,4.12,1.05,5.35-1.16,6-4.19.93-4.28,1.59-8.63,2.43-13.51a1.07,1.07,0,0,1,1.45-.8c8,3.18,16,1.91,22.14-3.63,3.66-3.33,5.41-5.59,9.26-11.25,1.53-2.25-.92-4-2.78-1.66-1.47,1.82-5.15,6.21-6.93,7.91-.59.57.08-1.82-.18-4.44-.9-9.28-5.85-11.29-14-10.77-3.95.26-1.93-1.23-1-2.05,8.73-7.7,20-14.92,28.21-12.84,5.51,1.4,9.74,9.1,8.53,15.63M342.85,555c2.12-29.66,5.77-54.88,8.66-83.2a1.06,1.06,0,0,1,1.73-.71c1.74,1.45,2.77,2.28,3.71,3.2A187.71,187.71,0,0,0,421.41,516c30.76,12,62.6,16.3,95,10.11,51-9.74,91-36.76,119.77-80a201.57,201.57,0,0,0,28.92-68.87,286.34,286.34,0,0,0,7.07-70.29c-.27-9.4,1.67-11.59-8.12-12.07a.93.93,0,0,1-.86-1.17A36.68,36.68,0,0,1,672,278.43c8.32-9.05,17.09-17.68,25.57-26.57,6.33-6.63,12.66-13.29,16.71-21.67,5.51-11.41,3.26-24.44-5.36-30.9a41,41,0,0,0-3.71-2.36,1.06,1.06,0,0,1-.24-1.61c1.83-2,3.55-3.85,5.07-5.83a35.68,35.68,0,0,0,4.75-7.17c3.37-7.76.62-13.31-7.38-15.51-.74-.2-1.49-.34-2.36-.5a1.05,1.05,0,0,1-.56-1.79c6.64-6.62,11.66-13.67,14.59-22.15,2.57-7.42,4.2-12.09,2.32-20.27-2-8.19-10.63-11.15-17.39-8.36-3.7,1.53-5.36,3.31-8.76,5.53-.72.48-1.41,1-2.29,1.66a1.05,1.05,0,0,1-1.67-1c3.64-19.7,8.26-38.19,10.42-57.39a1.08,1.08,0,0,0-.76-1.15,54.84,54.84,0,0,0-18.46-2.61,1.07,1.07,0,0,0-1,.86c-7,35.9-13.9,71.32-21,107.85a1.05,1.05,0,0,1-1.83.48c-7.3-8.41-16.41-9-25.42-6.84-21.07,5.08-39.64,14.9-53.56,32.15-10.7,13.24-13.74,28-7.66,44,2.54,6.69,6.4,12.9,9.82,19.24a38,38,0,0,1,4.74,17.24c.12,4.83.85,9.88-1.44,15.06a1.41,1.41,0,0,1-1.29.75c-5-.4-7.08-.68-12.56-1.31a1.06,1.06,0,0,0-1.14.77c-.8,3.06-1.27,4.56-1.87,7.73a205.36,205.36,0,0,1-19.26,56.56c-11.72,22.68-30,38.08-55.2,44.16a46.34,46.34,0,0,1-25.74-.83c-12.47-4.16-22.56-11.67-30.75-21.9-13.38-16.73-19.79-36-21.94-57.11-2.34-23.05.71-45.09,10-66.27,5.06-11.5,10.47-22.77,20.57-31.08a3.58,3.58,0,0,0,.81-4.59c-4.7-7.72-10.69-13.43-13.79-22.76a1,1,0,0,1,1.57-1.19c11,7.13,22.95,16.44,30.81,14.92,3.76-.42,3.82-14.29,5.26-23.38a5,5,0,0,1,4-4.06c7-1.31,13.88-1.9,20.74-3.16,2.8-.52,7.08-1.11,8.16-4.44,1.13-3.48-2.18-4.92-4.59-7-2.72-2.38-5.54-4.64-8.25-7-11.22-9.9-17.5-22.09-17.35-37.29.1-10.09.23-20.19.13-30.28-.11-12.45-2.68-24.43-8.53-35.46A110.75,110.75,0,0,0,436,20C419.36,6.63,399.75,3.12,381.43,4.12a121.34,121.34,0,0,0-111,92.45c-13.35,55.48,7.19,118.87,67,140.22l.09,0c.06.1.11.06.13.17,1,5.66-2.75,9.86-6.52,14a1,1,0,0,1-.71.35c-8.72.62-17,1.09-25.24,1.83-17.5,1.56-35.07,2.64-52.46,5C217.63,263.07,183,270,149.11,280.7c-33.68,10.64-66,24.15-94.64,45.24-14.47,10.64-27.54,22.67-37.21,38C5.59,382.4,1.91,402.15,8.16,423.41c6,20.35,18.58,36.35,33.67,50.53,19.7,18.49,43.47,31,66.63,44.37,3.46,2,5.87,1.11,8-.66a1.08,1.08,0,0,1,1.1-.19l31.09,12.86a1.06,1.06,0,0,1,.62,1.28c-2.19,7-9.79,20.15-11.42,23.36s3.37,3.74,5.13.29,9.11-17.16,12-21.82a1.05,1.05,0,0,1,1.21-.45c6.43,2.1,12.71,4.26,19.07,6.17,7.15,2.14,14.34,4.62,21.93,3.64a23,23,0,0,0,9.34-3.22c5.88-3.82,6.79-7.41,4.68-14.15-.16-.51-.35-1-.6-1.62a1.06,1.06,0,0,1,1.16-1.42c1.48.25,2.77.47,4.08.59,2.61.24,5.3.78,7.84.41,5.35-.78,10-4.71,10.25-8.93.28-4.6-1.84-8.34-5.88-10.83a60.45,60.45,0,0,1-7.07-4.86,1.05,1.05,0,0,1,.88-1.84,103.38,103.38,0,0,0,10.44,1.76c4.52.44,9.26.95,13.63.06,11-2.22,14.21-12.61,6.38-20.62-2.93-3-6.95-5.1-10.75-7.07-2.9-1.51-6-2.68-9-4.32a1.05,1.05,0,0,1,.52-2,32.64,32.64,0,0,0,4.85-.14c5.93-.71,11.95-1.24,17.69-2.77,9.88-2.63,10.32-13.55,2.48-19.73-5.07-4-11.25-5.38-17.53-5.89-5.29-.42-10.62-.24-15.91-.53-2.94-.16-5.87-.61-9.61-1.07a1.05,1.05,0,0,1-.81-1.51c1.6-3.2,2.94-5.93,4.34-8.63q14.63-28.19,29.3-56.35c2.69-5.13,2.06-6.9-3.51-7.74-25.42-3.83-50.81-4.94-76,1.56-8,2.08-15.38,5.49-21.23,11.7-6.11,6.5-7.5,14.45-3.44,22.55,5.31,10.58,14.57,17.1,24.23,23.15,2,1.24,4.05,2.31,6.59,3.7a1.05,1.05,0,0,1,.37,1.51c-20.29,30.17-40.65,59.87-62.3,88.81a1.07,1.07,0,0,1-1.32.32c-20.54-10.12-39.76-21.52-57.42-35.24C39.2,467.1,27.89,452.51,19.19,436.32,5.13,410.13,8.43,384.91,25.4,360.93c13.4-18.94,31.35-32.54,51.19-43.8,36.51-20.74,75.92-33.94,116.65-43.27,24.85-5.7,49.94-10.39,75.42-12.43,20.38-1.63,40.51-4.51,60.93-5.49,17.34-.82,35,.29,52.37.35,10.89,0,21.79.84,32.9,1.35a1,1,0,0,1,1,1.24c-1.33,7.17-2.89,14-3.72,21-2.81,23.61-3.07,47.17,5.15,69.91,8.28,22.93,22.09,41.08,45.91,49.87,20.13,7.43,38.88,3.79,56.42-7.53,20.42-13.18,33.11-32.55,42.44-54.42A148.24,148.24,0,0,0,572.71,298a29.2,29.2,0,0,1,.95-4.62,1.3,1.3,0,0,1,1.32-.93c30.51,2.85,58,4.84,89.24,7.8a3.16,3.16,0,0,1,2.77,2.9c.13,3.37-.25,7.32-.07,10.24a176.62,176.62,0,0,1-2.57,45.32c-4.76,25.24-12.94,49.34-25.71,71.73-18.93,33.23-44.54,59.66-79.06,76.87-18.75,9.35-38.6,14.22-59.52,16a168.5,168.5,0,0,1-59.24-5.85,180.49,180.49,0,0,1-67.88-35.65c-5.92-4.91-11.38-10.37-17.11-15.5-1.33-1.19-2.78-2.25-4.23-3.32-2.39-2.1-3.52-.2-3.54,1.55-2.83,28.8-6.76,50.1-9.18,79.73,0,.26-.6,10.31-.63,10.59,0,0-.14,2,2.17,2A2.18,2.18,0,0,0,342.85,555ZM208.47,530.49c-.37,3.44-3,5.33-6.22,6.3a25.36,25.36,0,0,1-3.15.67c-.1,0-2.07-.1-2.17-.11-4.72-.4-6.7-2.3-8.71-6.16-2.24-4.31,0-9.41,4.82-9.74a27.36,27.36,0,0,1,10.43,1.85c3.07,1.07,5.37,3.68,5,7.19m.05-23.23c2-3.76,5.91-6.69,12.67-4.22a35.24,35.24,0,0,1,5.92,4.08c2.44,1.88,4,4.31,3.13,7.5-.92,3.43-3.58,5-6.91,5.44l-.37,0a15.61,15.61,0,0,1-8.46-1.4,16.34,16.34,0,0,1-2-1.11c-4.49-3-5.81-6.92-4-10.33m27.84-32.8c7-1,15.18,5.25,16.35,12.26a6.14,6.14,0,0,1-3,6.74c-.28.16-.56.32-.85.46a15,15,0,0,1-13.32.08,15.37,15.37,0,0,1-6.88-6.35c-3.16-5.61.86-12.2,7.74-13.19m12.57-32.14c5.64-.1,10.86,4.16,11.12,9.09.21,3.9-2.74,7.93-9.87,7.93-4.82,0-12.06-4.54-12-8.59.06-4.46,5-8.32,10.76-8.43M161.88,408a63.57,63.57,0,0,1-11.73-13.49c-6.5-10.43-3.56-17.79,7.37-23.45,8.63-4.47,18.1-6.49,27.64-7.67,18.75-2.33,37.49-2.39,57.21,1.43a1.06,1.06,0,0,1,.75,1.49c-2.05,4.36-3.83,8.35-5.83,12.22-5.06,9.83-10.3,19.57-15.37,29.4-1.37,2.64-2.7,4.73-6.08,5.43-11.8,2.44-23.53,5.25-35.82,8.05a1,1,0,0,1-.86-.19c-5.43-4.06-11.7-8.25-17.28-13.22M120.1,513.63a1.06,1.06,0,0,1-.38-1.52c6-9.05,11.58-17.62,17.45-25.94,13.21-18.7,26.58-37.27,40-55.85a10.67,10.67,0,0,1,4.18-3.77,161,161,0,0,1,34.08-8.47,1.06,1.06,0,0,1,1.16,1.37c-1.93,5.93-5.24,9-7.46,16.77-.14.52-.82,1.67,1.16,1.89,12.94,1.4,20.23,1,29.76,1.52.75,0,1.53,1.14.88,1.51-4,2.32-5.31,6-5.95,9-.75,3.48,1,6.31,4.63,9a1.05,1.05,0,0,1-.47,1.89c-10.55,1.46-20.74-.81-30.81-1.21-3-.12-2.26,2.07-1.43,2.5,5,2.62,8,2.72,11.33,4.18s8.52,2.44,12.51,3.81a1.07,1.07,0,0,1,.38,1.77c-3.11,3-6.62,5.36-6.94,10a15.47,15.47,0,0,0,3.22,10.64,1,1,0,0,1-1.06,1.63l-29.49-6.06c-3.2-.42-3.53,2.24-1.26,3.63,4.76,2.37,10.22,3.53,14.81,6.36a1.06,1.06,0,0,1,.18,1.68c-6.28,5.84-6.84,5-5.36,14.17a1.07,1.07,0,0,1-1.27,1.21c-8.63-2-16.76-5.63-25.4-7.52-3.3-.72-4.1,3.53-1.84,4.25,3.86,1.23,8.72,2.34,12.37,3.81.84.33,5.67,2,4.14,2.14-5.11.58-7.25,2.06-9,5.61-1.83,4.39-.42,8.31,2.29,11.83,2,2.59-1.15,2.26-1.93,2.09a257.88,257.88,0,0,1-64.46-24M453.69,115.9a1.05,1.05,0,0,1-1.13,1.17c-8.19-.68-20.48-3.5-20.62-5.73,0-2.77,13.66-6.09,22.15-5.64a1,1,0,0,1,.9,1.45c-1.59,3.78-2,6.1-1.55,9.51m-115.77,133c2.16-3.26,3.42-5,4.39-12.28.07-.54.17-1.23,2.09-.8,10.7,2.4,20.48,3.33,31,.37,14.63-4.11,28.05-7.3,37.44-27.13,11.39-24.07,3.19-53.87-39.35-47.79-5.49.78-10.35-1.59-12.4-6.38-7.39-17.28-5.27-33.8,4.43-50.09l.28-.42c6.61-8.92,15.06-8.23,20,1.56,1.18,2.34,2.39,4.68,3.72,7,.27.45.93.67,1.73,1.09a1.07,1.07,0,0,0,.94,0c30.49-14.64,48.15-39.13,58.05-71.21a1,1,0,0,1,1.84-.33,86.64,86.64,0,0,1,16.29,38.83,1,1,0,0,1-1.23,1.18c-18.41-3.22-38.23.26-36.32,5.55.63,3,10.1.88,16.5,0s14.61-.75,21.16,1.36a1.07,1.07,0,0,1,.72.89,38.76,38.76,0,0,1-.23,9.13,1.05,1.05,0,0,1-1.12.94,86,86,0,0,0-21.68,1c-7.32,1.29-20.49,5.06-20.12,8.88-.58,5.65,21.38,11.35,42.52,10.6a1,1,0,0,1,1.07,1c1.28,19.24,6.16,30.67,26.88,45.47,2.47,1.77,2,3.18-1.33,3.75-3,.52-7.27.88-9.66,1.21-5.24.73-8.59,1-13.81,1.74-4,.59-4.17,2.63-4.75,5.73-1.31,7.07-1.47,19.51-4.37,20.56-3.14,1.74-10.73-4.47-16.28-8.27-3-2-5.92-4.16-9-6.09-2.05-1.28-6.2-1.39-8.17.39-1.4,1.1-2.21,3.34-1,7.42l0,.1a69.28,69.28,0,0,0,12,20.81,3.57,3.57,0,0,1-.2,4.73A81,81,0,0,0,420.56,252a1.58,1.58,0,0,1-1.25.91c-26.93-.65-53.69-2-79.94-2.12-2.09,0-2.09-.47-1.7-1.06m-.25-160.13,57.81-17.48L444.8,34.21a5,5,0,0,1,.73,4.35c-7.26,27.68-20.47,51.34-45.17,67.27a77.05,77.05,0,0,1-7.55,4,1,1,0,0,1-1.4-.44c-1.39-2.63-2.5-4.94-3.84-7.1-6.31-10.11-16.51-10.85-23.56-1.38a45.63,45.63,0,0,0-7,13.29c-4,12.58-4.67,25.44-.55,38.19,3.47,10.74,7.93,14.67,19.08,13.61,14.86-1.41,30.48,14.3,28.69,31.85-2,19.34-19.25,35.43-38.62,36.68A73.89,73.89,0,0,1,338.23,231l10.21-73.53Zm89.81-70.21A162,162,0,0,0,401.12,8.7a81.67,81.67,0,0,1,26.11,10.66M647.62,165.83c4.63.68,8.33,5.23,8.38,10.31.09,9.58-7.16,17.36-16.64,17.28-7,0-12.92-5.66-11.5-13.36,1.64-8.85,10.8-15.55,19.76-14.23m22.3,58.79a11.07,11.07,0,0,1,8-4.13c6-.28,9.92,3.68,9.55,8.54-.43,5.63-3.47,9.3-9.2,9.86-2.61.25-7.64-1.3-9.23-4.33a9.5,9.5,0,0,1,.88-9.94m9.32-16.29-3.13,2.28a1,1,0,0,1-1.64-1.09c.28-1.17.52-2.16.77-3.19a1,1,0,0,1,1.39-.74l2.36.9a1.06,1.06,0,0,1,.25,1.84m-6.76-13c.36-8.18,5.95-10,11.81-9.94,5,0,8.42,3.52,7.25,8.7-.07.23-.61,1.78-.69,2-2.06,5.43-8.42,7.7-13.48,6.17A6.74,6.74,0,0,1,672.48,195.31Zm10.28-39.12c0-5.85,5.37-10.12,11.82-10,4.84.11,9.23,3.35,9.21,7.84,0,5.89-6.73,12.64-12.5,12.57-4.9-.07-8.56-4.55-8.53-10.44m-1.36,18.09c.36-2,.68-3.87,1-5.9a1,1,0,0,1,1.56-.73l4.33,2.52c.68.39.63,1.05,0,1.47L682.93,175c-.77.49-1.68.15-1.53-.75"/><path class="fdfeb8f9-80a7-43e4-b862-a53c7a0a8889" d="M380.36,142.7a48.93,48.93,0,0,1-2,5c-3.42,6.6-9,7.21-11,.86a52,52,0,0,1-1.55-25.78,22.45,22.45,0,0,1,2-5.44c2.49-5.12,5.93-7.86,9.14-7.48,3.39.4,5.43,3.52,5.92,9A55.94,55.94,0,0,1,380.36,142.7Z"/></g></svg>