<svg xmlns="http://www.w3.org/2000/svg" xmlns:xlink="http://www.w3.org/1999/xlink" viewBox="0 0 667.18 695.14"><defs><style>.a0ef664b-34e5-45ac-970c-c9049452c989,.f5c577e6-dc61-4c78-87a0-17d0f9724cac{fill:none;}.f42eefd5-1b11-41a8-ab03-b68a8087c556{fill:#d2d4e8;}.b7cc2ead-d5a0-4dd3-b051-7c812c16dacf{fill:#bbae80;}.b072fd3d-2186-42e8-be8d-fc084773f7db{fill:#171a4d;}.f5c577e6-dc61-4c78-87a0-17d0f9724cac{stroke:#221f20;stroke-miterlimit:10;stroke-width:0.16px;}.a113363d-31fa-43ce-a48b-7c507c7c7815{fill:#eae2d6;}.f8402b23-6762-4281-9060-048474955af5{clip-path:url(#b1131143-ec20-4184-8d6e-39c47630f902);}.a8218d64-1b68-4db0-b88c-837ea6b05f1e{fill:#141a4c;}</style><clipPath id="b1131143-ec20-4184-8d6e-39c47630f902"><polyline class="a0ef664b-34e5-45ac-970c-c9049452c989" points="647.85 306.31 476.02 306.31 476.02 440.1 647.85 440.1"/></clipPath></defs><g id="e9f95eb5-c757-4811-b5b1-3e0540572c38" data-name="Layer 2"><path class="f42eefd5-1b11-41a8-ab03-b68a8087c556" d="M182.74,26.92,192,30l26.65,7.94,46.9,12.16L273,51l-2.18-6.08,1.71-4.83-7.95-1.55-4.83-1.72-1.24-4.67,4.05-4.68-8.26-2.8-6.23-3.43.31-6.7s4.52-4.21,19.16-4.52,57.35,8.41,57.35,8.41L388,45.54l12.62,4.2,15.27,1.56,19.79-1.09,17.45,4.21,7.79,12.31,1.87,10.91-3.58,10.44-3.89,6.54-4.84-4.21-2-7.63-3.12-7.17-2.18-2.49-2.65,7-.15,8.1.93,7.64-.78,10.44-7.94,16-1.41,11.06-5.92,12.93-5.92-15.74-.78-14.49-11.37-7.63-15.74,1.71-19.79,7-22.44,10.6-17,5.45L306,141.68l-20.1,1.87-23.68-2.5-18.39-4.67-5.45-4.83.93-4.83,4.21-1.72h5.14l6.23-.93-3.58-4.36v-3.43l2.34-2.18,4.36-.94,4.05.63h3.74l3.58-.16-1.4-4.36.31-5.77,4.05-1.4-17.14-.94-52.51-3.42-21.66-.16-10-6.7V85.43l7.33-2,5.92-.31-10.75-7.17-5.46-4.67,1.25-4.52,8.1-1.09,12.78-3.12L177,58.47,167.5,53l2-4.52,8.89-.47,9.81-.62-3.74-5.3-5.92-2.18-4.35-7.77,8.53-5.24"/><polygon class="b7cc2ead-d5a0-4dd3-b051-7c812c16dacf" points="130.09 304.34 133.53 668.24 282.18 452.61 480.11 444.62 479.07 308.85 214.13 305.73 130.09 304.34"/></g><g id="b4142c21-3bd0-4fbf-aa1d-4f6bcc21aaae" data-name="Layer 1"><path class="b072fd3d-2186-42e8-be8d-fc084773f7db" d="M494.84,303.64c1.09-2.11-5.55-5.24-8.47-7.33-.37-.25-1.06-.05-1.55-.05-5.62,0-11.1-.8-15.72-.78-12.24.06-25.89.26-38.12,0-18-.38-36.69-.67-54.71-1.15-8.76-.23-17.53-.1-26.29-.34-22.63-.61-41.33-.68-64-1.23-21.94-.53-43.88-.7-65.81-1.24-23.16-.58-46.5-.27-69.66-.92-5.78-.16-11-.15-16.57.15-1.53,8.18,2.4,11.3,9.55,11.48,7.67.2,13.76-.15,21.42,0,21.54.38,43.07.76,64.6,1,14.46.16,28.92,0,43.38.12,26.87.23,53.74.63,80.62.85,32.18.27,64.37.42,96.56.67,5.09,0,10.18.28,15.27.47,7.45.28,14.92.42,22.35,1,3.07.24,5.3-.37,7.43-3.54m-19,7.92H372.69q-.37,67.74-.75,135.39c34.68-1.34,69.25-2.64,104.21-4.68Zm5.6-20.83c0-2.28-.11-4.13,0-6a163.23,163.23,0,0,0-2.15-41.58,114.21,114.21,0,0,0-11.95-34.53,56.71,56.71,0,0,0-18.9-20.49,24.33,24.33,0,0,0-13.87-4.37c-17.71.21-35.42.51-53.13.19-13.3-.25-26.59-1.66-39.89-2.07-20.25-.62-40.51-.87-60.77-1.17-17.68-.26-35.38-.32-53.07-.59-13.85-.21-27.69-.71-41.54-.89-22.1-.28-44.2-.41-66.29-.6-2.79,0-5.58,0-8.38,0,0,.78,0,1,.08,1.14a8.57,8.57,0,0,0,1,1.29c7.73,7.59,12.13,17,14.75,27.44,2.88,11.4,3.69,23,3.81,34.76.09,9.81.15,19.62.44,29.42.13,4.36.79,8.71,1.27,13.71,8,0,15.49-.06,22.95,0q47.13.46,94.25,1c18.62.25,37.24.76,55.86,1,13.15.2,26.3.2,39.45.32q16.45.15,32.9.37,24.06.35,48.11.76c9.67.18,19.33.6,29,.75,8.55.13,17.1,0,26,0M366.86,310.11c-15.45-.22-29.83-.45-44.2-.6-39.3-.42-78.6-.91-117.89-1.13-17-.09-33.91.7-50.86.52-6.87-.07-14.12,1.18-21.32-3.88,0,3.34,0,5.69,0,8q.18,17.31.37,34.6c.24,26.15.41,52.29.72,78.44.29,24.7.73,49.4,1.09,74.1.38,26.34.88,52.68,1.06,79,.16,22.89-.06,45.78-.1,68.68,0,4,0,8.06,0,13.15,1.28-1.76,1.94-2.6,2.54-3.49,10.65-15.76,21.23-31.58,32-47.29,16.56-24.26,33.26-48.43,49.84-72.68q23.61-34.55,47.1-69.19a185.88,185.88,0,0,0,10.38-16.33c1.39-2.6,2.8-3.56,5.43-3.46,4,.14,8,.41,12,.29q32-1,64.07-2.25c2.31-.08,4.62-.31,6.37-.44.47-45.48.92-90.38,1.39-136.08M646.7,438.73c-6.49.54-7.9.95-15.57,1.38-1.36.07-3.12.05-4.38,0-2.37-.1-5.12.18-7.47.28-12,.49-24.08,1.14-36.12,1.67-13.84.61-27.68,1.12-41.51,1.73-10.95.48-21.89,1.13-32.84,1.56-13.88.54-27.77.84-41.64,1.39-25,1-50,2.09-75,3.14q-15.6.67-31.19,1.37-34.2,1.54-68.4,3.17c-2.17.1-4.32.69-6.5.89-2.59.24-4.1,1.59-5.57,3.82-7.62,11.59-15.5,23-23.24,34.5q-15,22.29-29.92,44.64Q214.69,557.14,202,576c-9,13.51-18,27-27.12,40.53-8.13,12.09-16.36,24.11-24.51,36.19-3.26,4.84-6.43,9.74-10.11,15.34,109.41-9.69,217.55-22.16,325-33.56,2.05-2.49,3.47-4.42,5.11-6.14q27.65-29,55.37-58c8.15-8.51,16.48-16.84,24.55-25.44,5.67-6,11-12.43,16.54-18.58q28.59-31.61,57.25-63.12c2.1-2.31,4.48-4.47,6.49-6.67,6.27-6.84,10-11.29,16.05-17.82M46.41,647.58c-4.42,2.24-4.71-8.66-4.73-13.27-.06-11.91,0-23.81,0-35.72-.11-24.92-.35-49.84-.4-74.76q-.09-46.86.06-93.7.12-62.26.31-124.5c0-6.29.46-12.58.31-18.86-.18-7.58-.94-15.14-1.14-22.73-.14-5,.32-10,.42-15,.17-8-.23-16,.51-23.94,1-11.08,2.91-22.1,7.73-32.25,3.64-7.68,9-14,16.5-18.08a22.68,22.68,0,0,1,5.64-2c8.62-2,17.32-1.74,26.12-1.45,16.45.56,32.93.33,49.39.53,28,.34,55.93.6,83.88,1.21,20.44.44,40.86,1.49,61.29,2,9.47.25,19-.33,28.42,0,14.6.51,29.18,1.79,43.78,2.18,15.15.4,30.32,0,45.49.18,10.95.14,22,.18,32.85,1.26,6.7.67,12.55,4.44,17.64,9.17,12,11.19,18.75,25.39,22.5,41.21A176.72,176.72,0,0,1,487.33,274c-.12,5.37-.89,10.73-1.4,16.56,2.14,1.54,4.34,3.14,6.56,4.71.6.42,1.31.68,1.9,1.11,3.59,2.53,4.87,5.75,3.85,9.55-.68,2.52-4.63,5.27-8.08,5.42-2.88.12-5.76,0-8.77,0V440.76c4.2,0,8.14.13,12.06,0,9.13-.38,18.25-1,27.38-1.35q24.34-1,48.7-2c13.15-.48,26.3-.68,39.45-1.27,8.92-.4,17.82-1.34,26.73-1.86,3.83-.22,7.68.13,11.51,0,2.39-.07,3.64,1.1,4.61,3.13s.4,3.55-.86,5.1q-6.11,7.5-12.15,15.05c-16.05,20-34.5,37.77-51.7,56.7-14.87,16.37-30.37,32.15-45.58,48.21q-26.06,27.51-52.09,55c-4.05,4.28-8.18,8.47-12.25,12.73-.75.79-1.36,1.75-2,2.57-5.4,6.86-7.09,8.71-13.46,9.3-17.25,1.59-34.48,3.48-51.71,5.29q-22,2.33-44,4.74c-19.75,2.17-39.5,4.43-59.26,6.57-14.88,1.61-29.78,3-44.64,4.66-20.84,2.4-41.65,5.06-62.48,7.52-14.32,1.7-28.64,3.35-43,4.86-8.15.86-16.34,1.51-24.52,2a18.81,18.81,0,0,1-7-1.06c-15.4-5.22-30.76-10.59-46.12-15.91L50,650.74c-4.05-1.41-5.35-1.73-2.37-5.76,1.12-1.52,3.77-.38,5.53.16,5.58,1.71,11.06,3.76,16.58,5.66l53.93,18.47c1.68.57,3.38,1.08,4.8,1.52,2.51-2.43,3-5,2.87-8-.32-7.61-.58-15.22-.72-22.83-.21-11.51-.23-23-.46-34.52-.21-10.58-.7-21.16-.85-31.74-.26-17.67-.33-35.35-.5-53-.07-6.49-.28-13-.24-19.47,0-6.82.47-13.63.44-20.44-.07-11.28-.44-22.55-.58-33.82-.17-14.5-.23-29-.37-43.5-.19-18.72-.55-37.44-.58-56.17,0-14.5.46-29,.49-43.5,0-8.92-.34-17.84-.68-26.75-.67-17.62-1.67-35.24-2.1-52.86-.28-11.82-4.37-22.13-10.62-31.72-6.14-9.41-14.21-16.12-25.92-16.24a52.58,52.58,0,0,0-14.59,1.67c-7,2-13.24,5.58-16.87,12.43-6.35,12-9.11,25-10.18,38.43-.7,8.67-.65,17.42-.76,26.13-.17,14.69-.39,29.38-.22,44.06s1,29.33,1.15,44c.16,13.37-.2,26.74-.19,40.1q.1,76.44.3,152.89.07,49.93.09,99.86c0,3.06,1.77,9.43.25,9.17"/><path class="b072fd3d-2186-42e8-be8d-fc084773f7db" d="M447.53,505.1c-.17.36,1.89-3.88,2.65-6,1.13-3.16,1-6.34-1.41-8.79s-5.39-2.06-8.2-1.08a26.94,26.94,0,0,0-16.91,16.26c-1.42,3.68-2.46,7.84.78,11s7.43,2.14,11.22.3c.28-.14.64-.36,1.48-.84-2.08-4.61-2.75-6.4-5.23-11.89-1.14-2.49,1.72-3,3.5-3.65,1.88-.42,2.89-.68,4.51-1,5.3-.92,4.13,0,7.61,5.66m-5.31-2.55-6.57,1.16c3.59,6.45,6.53,12.9,9.32,17.91-1,3.87-2.12,6.44-2.26,9.06a20.26,20.26,0,0,0,14.36,20.54c6.65,2,13.74-3.4,14.66-10.37,1.38-10.56-7.62-20.05-20.26-21.24-3.07-5.37-5.74-10.93-9.25-17.06m-2.79,17.84c-2.8.89-4.83,1.7-6.94,2.16-9.46,2.07-16-3.88-13.95-13.4,2.53-11.79,9.33-20.44,20.79-24.64,4.74-1.74,9.47-1.64,13.29,2.25,3.59,3.66,3.87,8.4,2.6,13-1,3.7-3.17,7.81-4.74,11.54,2.09,5.27,3.72,4.23,6.85,4.84,11.59,2.24,17.88,11.27,18.94,22.07.6,6-1.46,11.35-6.65,15-5.92,4.15-12.19,3.84-18.18.71-10.57-5.53-15.93-18.11-11.21-31.06.23-.63,0-1-.8-2.46"/><path class="f5c577e6-dc61-4c78-87a0-17d0f9724cac" d="M447.53,505.1c-.17.36,1.89-3.88,2.65-6,1.13-3.16,1-6.34-1.41-8.79s-5.39-2.06-8.2-1.08a26.94,26.94,0,0,0-16.91,16.26c-1.42,3.68-2.46,7.84.78,11s7.43,2.14,11.22.3c.28-.14.64-.36,1.48-.84-2.08-4.61-2.75-6.4-5.23-11.89-1.14-2.49,1.72-3,3.5-3.65,1.88-.42,2.89-.68,4.51-1C445.22,498.52,444.05,499.42,447.53,505.1Zm-5.31-2.55-6.57,1.16c3.59,6.45,6.53,12.9,9.32,17.91-1,3.87-2.12,6.44-2.26,9.06a20.26,20.26,0,0,0,14.36,20.54c6.65,2,13.74-3.4,14.66-10.37,1.38-10.56-7.62-20.05-20.26-21.24C448.4,514.24,445.73,508.68,442.22,502.55Zm-2.79,17.84c-2.8.89-4.83,1.7-6.94,2.16-9.46,2.07-16-3.88-13.95-13.4,2.53-11.79,9.33-20.44,20.79-24.64,4.74-1.74,9.47-1.64,13.29,2.25,3.59,3.66,3.87,8.4,2.6,13-1,3.7-3.17,7.81-4.74,11.54,2.09,5.27,3.72,4.23,6.85,4.84,11.59,2.24,17.88,11.27,18.94,22.07.6,6-1.46,11.35-6.65,15-5.92,4.15-12.19,3.84-18.18.71-10.57-5.53-15.93-18.11-11.21-31.06C440.46,522.22,440.23,521.9,439.43,520.39Z"/><path class="b072fd3d-2186-42e8-be8d-fc084773f7db" d="M466.19,540.53a5.59,5.59,0,0,1-4.95,5.64,4.23,4.23,0,0,1-4.13-4.22,5.07,5.07,0,0,1,4.9-5.52,3.9,3.9,0,0,1,4.18,4.1"/><path class="a113363d-31fa-43ce-a48b-7c507c7c7815" d="M366.8,339.7c0,.34-.09.68-.14,1l22.4,11.35c-.4-5-.71-8.84-1-12.37Zm26.32-.46c-.15,5-.56,10.28.54,15.62,7.28-2.37,20.2-8.65,21.66-10.15l-22.2-5.47m-1.23-14.39c-.85,3.85-.12,6.55,2.84,8.4a27.13,27.13,0,0,0,5.71,3.06c12,4,24,2.36,36-.54a11.58,11.58,0,0,0,2.65-1.43c-16.35-.26-32.33-.81-47.16-9.49m-2.53,38.84-19.74,15.92c11.78,1.41,22.15,2.68,32,7.11-4-7.41-7.92-14.83-12.3-23m-8.29-9.21c.16-.35.34-.72.51-1.08l-31.42-16.21c-1.61,3.17-2.72,6-4.39,8.43a87.49,87.49,0,0,1-6.45,7.49l41.75,1.37m17.77,11.87-.92,1.19c4.07,7.78,8.15,15.56,12.5,23.89a77.66,77.66,0,0,1,20.36-15.56l-31.94-9.52M429,344.5l-31.93,14.66c12.61,5.48,24.89,7.79,38.14,11.23-4.44-8.59-8.39-16-6.21-25.89m-98.67-17.57c-3.23,10.87-10.71,18.31-19.84,24.78a168.13,168.13,0,0,0,18.53,1,8.46,8.46,0,0,0,4.49-1.62,83.66,83.66,0,0,0,7.13-5.88c3.15-2.79,4.44-6.32,4.45-10.59l-14.76-7.7M355.67,381c9.14-7.29,18.56-13.46,26.89-21.2-13.55,0-26.85-1.63-41.46-.9,7.48,6.54,11.08,14,14.57,22.1m35.46-64.9c-.44,3.25.47,5.06,3.36,6.25,9.6,4,19.54,6.69,30.06,6.71,7.39,0,14.79-1.05,22.17-.89,9.75.2,16.95-5.32,25.14-8.77-27,4.22-53.8,5.24-80.73-3.3m-74.86,3.81c-9,16.41-24.14,24.94-41.23,31.45,6.87.38,13.69.4,20.5.35a5.93,5.93,0,0,0,2.68-.58c5.46-2.95,11.11-5.67,16.23-9.09,4.78-3.19,7.77-8,9.94-13.12,1.59-3.78,1.18-4.6-2.85-6.56-1.64-.79-3.31-1.54-5.27-2.45m16.67,2.57c9,5.48,17.89,10.9,28.75,12.05,1.27.13,2.51.66,3.78.7,5.92.17,11.85.34,17.78.3,2.34,0,4.65-.87,4.45-3.64-.4-5.66-1.08-11.3-1.73-17.84-8.07,7-17.11,8.27-26.45,9.11-8.93.81-17.71.23-26.58-.68m-22.77,36c-.1.41-.19.82-.29,1.24,14.7,7.51,22.21,20.24,27.87,34.91a68.44,68.44,0,0,0,11.94-9.39c.76-.72.84-2.7.41-3.81-1.55-3.94-3-8-5.32-11.54-4.74-7.16-10.37-13.34-20.92-11.29-2.12.41-4.44-.09-6.67-.11s-4.68,0-7,0M413.84,410.9c-2.58-4.37-3.54-9.32-7.62-13.1-7-6.53-15.68-9.08-24.85-10.93-14.51-2.92-26.56.9-36.33,12.06,23.9-.69,46.55,3.63,68.8,12m-201-61.68c14.12,1,28.14,1.61,42.21-.16,13-1.63,25.65-3.95,36.76-10.95,8.53-5.38,16.21-11.59,20-21.08-5.2-2.88-5.26-2.95-10.69,1.41-19.24,15.43-41.77,23.65-66.42,27.34-7.29,1.09-14.55,2.29-21.82,3.44M422,413.42c3.64-3.61,6.48-6.85,9.78-9.62,9.44-7.93,20.6-12.88,32.65-16.19,1.22-.33,2.35-.93,4.52-1.81-9.12-2.31-17-4.31-24.83-6.26a7.46,7.46,0,0,0-2.73-.25c-11.93,1.65-21.72,6.61-28.61,16.69L422,413.42m48.73-33.53c-11.19-13.72-18-28.52-17.3-46.61-5.29,2.44-9.8,4.83-14.56,6.6-4.17,1.56-5.61,4.34-5.37,8.15a20.38,20.38,0,0,0,1.33,7.14c2.37,5.13,5.14,10.1,8,15a6.87,6.87,0,0,0,3.48,3.11c8.1,2.36,16.29,4.43,24.45,6.59m-158,42.75.43.8c1.72-.4,3.41-.89,5.15-1.18,9.29-1.56,18.54-3.7,27.9-4.42,10.07-.77,20.27-.21,30.4-.19,13.15,0,25.83,2.21,37.79,7.53,2.94,1.29,5.72,2.88,8.58,4.33l.82-.69a33.47,33.47,0,0,0-2.83-4.77,35,35,0,0,0-15.45-10.62,159.57,159.57,0,0,0-58.24-9.14c-7.37.23-14.08,2.14-19.86,6.66-4,3.13-8.15,6.09-12.19,9.18a25.76,25.76,0,0,0-2.5,2.51m21.64-24.88c-3.32-6.65-6.1-13-9.56-18.94a34,34,0,0,0-12.49-12.51c-4-2.28-7.81-4.75-11.88-6.81a14.49,14.49,0,0,0-5.84-1.25c-8.72-.28-17.44-.39-26.17-.55-1.35,0-2.71,0-4.06,0,23.17,12.88,42.69,28.68,54.53,52.21l15.47-12.15m180.91-6.06c-20.13-19.88-32.85-42.85-36.56-70.34-5.25,2.4-10,4.82-14.93,6.76-4.22,1.65-5.49,5-5.93,8.56a23.77,23.77,0,0,0,.5,9.95c6.57,20.46,18.29,36.39,42.06,41.32,5,1,9.91,2.49,14.86,3.75m56.36,14.63c-.58-.91-.63-1.1-.77-1.19-1.67-1.11-3.36-2.2-5-3.3-20.95-13.75-44.06-26.41-58-46.79-6.18-9.05-10.93-15.91-11.3-30.39.29-4.86,1.46-11.2-2.54-10.71-10,1.12-9.81,4.43-9.3,13,.16,2.62.23,5.4,1.23,7.77,3.28,7.79,6.36,15.76,10.63,23.07,8.12,13.91,18.19,26.49,31.74,36.23a17.41,17.41,0,0,0,5.27,2.77c9.25,2.58,18.55,5,27.86,7.39,3.17.82,6.43,1.38,10.18,2.18M295.37,428c5.17-4,10.06-7.72,14.86-11.54,3-2.42,3.29-3.37,1.81-6.78a64.14,64.14,0,0,0-10.88-17.06c-12.33-14-27.69-24.25-44.65-32.61a30.28,30.28,0,0,0-14.9-3.29c-4.64.18-9.29-.06-13.93-.1h-6.35a4.33,4.33,0,0,0,2.07,2.2c10.08,5.95,20.29,11.7,30.2,17.89,15.58,9.72,26.74,23.1,34.93,38.83,2.11,4.06,4.4,8,6.84,12.46m-3.47,3c-3.51-6.62-6.63-13-10.22-19.12-7-12-15.87-22.55-28.19-30.06-9.35-5.7-18.84-11.24-28.52-16.43-10.15-5.45-20.55-10.54-32.86-9.57-.9.07-1.84-.24-2.76-.25-5.44,0-10.89,0-17.37,0,8.07,3.45,15.18,6.32,22.14,9.49,19.53,8.89,38,19.33,53.27,34.13,11.9,11.52,22.48,23.92,27.45,39.76.31,1,1.61,3.42,2.35,5,5.28-3.89,9.43-9.07,14.71-13m273.34-20.36a18.88,18.88,0,0,0-2-.77q-34.66-9-69.33-18a28.82,28.82,0,0,0-7.07-1.38c-9.48.06-18.9.61-27.95,3.78-13.06,4.58-24.22,11.44-31.75,22.87-.91,1.39-1.94,2.53-1,4.3,2.43,4.49,4.77,9,7.51,14.26,40.68-24.8,85.18-29.34,131.59-25.09M306.38,309.27c7.9,2,15.55,4.15,23.3,5.86,13.33,2.94,26.8,3.94,40.36,1.31,4-.78,7.81-2,10.86-4.94s6.47-2.9,10.31-1.62c10.36,3.47,20.91,6.4,31.89,7.22a188.43,188.43,0,0,0,25,.43c13.19-.77,26-3.72,38.83-6.83,4.61-1.12,3.3-.8,8.57-1.24,2.12-.18,3-.44,3.62.86,5.34,11.76-1.49,19.55,8.68,35.8,8.69,16,21.71,23.66,35.93,35.49C556.21,392,572.11,401,586.91,408.16c4.76,2.31,9.86,4,14.85,5.9s10.15,4.26,15.46,5.59c7.69,1.93,10.11,7.08,17.91,8.62,2.3.45,9,2.81,11.3,3.36-1.62,4.55-1.07-.74-4.7-1.58-4.69-1.07-9.29-2.52-14-3.47-14.52-2.92-29-6-43.65-8.4a223.17,223.17,0,0,0-25.47-2.49c-11.67-.58-23.4-1.2-35.06-.78-23.79.86-46.81,5.1-68,16.15-5.19,2.71-10.73,4.83-16,7.41a20.32,20.32,0,0,0-5.23,3.68c-1.56,1.54-3.21,1.6-4.13.06-1.67-2.84-4.53-3.95-7.16-5.54-15.5-9.39-32.65-13.15-50.83-13.35-8.73-.1-17.47-.36-26.18.06A119.66,119.66,0,0,0,301,434.16c-7.41,3.47-12.53,10.64-19.46,15-.92.58-1.64,1.47-2.58,2-2.66,1.49-4.54.8-5.5-2-1.07-3.18-3.25-8.54-4.5-11.64-4.6-11.4-12.75-20.53-21.42-29.28-16-16.17-35.43-27.75-56.52-36.88-10.44-4.52-21.16-8.57-32-12.09-6.26-2-13-2.59-19.58-3.81-1.63-.3-3.29-.52-4.88-.95-2.7-.73-3.06-2.9-3-5.06s1.85-2.5,3.55-2.6a82.06,82.06,0,0,1,10.5-.34,253.53,253.53,0,0,0,42.33-.64c9.6-.94,19.24-1.53,28.81-2.68,15.46-1.84,30.95-3.85,45.69-8.88,13.69-4.68,26.6-10.84,37.46-20.31,2-1.76,4.38-3.17,6.54-4.72"/><g class="f8402b23-6762-4281-9060-048474955af5"><path class="b7cc2ead-d5a0-4dd3-b051-7c812c16dacf" d="M366.8,339.7c0,.34-.09.68-.14,1l22.4,11.35c-.4-5-.71-8.84-1-12.37Zm26.32-.46c-.15,5-.56,10.28.54,15.62,7.28-2.37,20.2-8.65,21.66-10.15l-22.2-5.47m-1.23-14.39c-.85,3.85-.12,6.55,2.84,8.4a27.13,27.13,0,0,0,5.71,3.06c12,4,24,2.36,36-.54a11.58,11.58,0,0,0,2.65-1.43c-16.35-.26-32.33-.81-47.16-9.49m-2.53,38.84-19.74,15.92c11.78,1.41,22.15,2.68,32,7.11-4-7.41-7.92-14.83-12.3-23m-8.29-9.21c.16-.35.34-.72.51-1.08l-31.42-16.21c-1.61,3.17-2.72,6-4.39,8.43a87.49,87.49,0,0,1-6.45,7.49l41.75,1.37m17.77,11.87-.92,1.19c4.07,7.78,8.15,15.56,12.5,23.89a77.66,77.66,0,0,1,20.36-15.56l-31.94-9.52M429,344.5l-31.93,14.66c12.61,5.48,24.89,7.79,38.14,11.23-4.44-8.59-8.39-16-6.21-25.89m-98.67-17.57c-3.23,10.87-10.71,18.31-19.84,24.78a168.13,168.13,0,0,0,18.53,1,8.46,8.46,0,0,0,4.49-1.62,83.66,83.66,0,0,0,7.13-5.88c3.15-2.79,4.44-6.32,4.45-10.59l-14.76-7.7M355.67,381c9.14-7.29,18.56-13.46,26.89-21.2-13.55,0-26.85-1.63-41.46-.9,7.48,6.54,11.08,14,14.57,22.1m35.46-64.9c-.44,3.25.47,5.06,3.36,6.25,9.6,4,19.54,6.69,30.06,6.71,7.39,0,14.79-1.05,22.17-.89,9.75.2,16.95-5.32,25.14-8.77-27,4.22-53.8,5.24-80.73-3.3m-74.86,3.81c-9,16.41-24.14,24.94-41.23,31.45,6.87.38,13.69.4,20.5.35a5.93,5.93,0,0,0,2.68-.58c5.46-2.95,11.11-5.67,16.23-9.09,4.78-3.19,7.77-8,9.94-13.12,1.59-3.78,1.18-4.6-2.85-6.56-1.64-.79-3.31-1.54-5.27-2.45m16.67,2.57c9,5.48,17.89,10.9,28.75,12.05,1.27.13,2.51.66,3.78.7,5.92.17,11.85.34,17.78.3,2.34,0,4.65-.87,4.45-3.64-.4-5.66-1.08-11.3-1.73-17.84-8.07,7-17.11,8.27-26.45,9.11-8.93.81-17.71.23-26.58-.68m-22.77,36c-.1.41-.19.82-.29,1.24,14.7,7.51,22.21,20.24,27.87,34.91a68.44,68.44,0,0,0,11.94-9.39c.76-.72.84-2.7.41-3.81-1.55-3.94-3-8-5.32-11.54-4.74-7.16-10.37-13.34-20.92-11.29-2.12.41-4.44-.09-6.67-.11s-4.68,0-7,0M413.84,410.9c-2.58-4.37-3.54-9.32-7.62-13.1-7-6.53-15.68-9.08-24.85-10.93-14.51-2.92-26.56.9-36.33,12.06,23.9-.69,46.55,3.63,68.8,12m-201-61.68c14.12,1,28.14,1.61,42.21-.16,13-1.63,25.65-3.95,36.76-10.95,8.53-5.38,16.21-11.59,20-21.08-5.2-2.88-5.26-2.95-10.69,1.41-19.24,15.43-41.77,23.65-66.42,27.34-7.29,1.09-14.55,2.29-21.82,3.44M422,413.42c3.64-3.61,6.48-6.85,9.78-9.62,9.44-7.93,20.6-12.88,32.65-16.19,1.22-.33,2.35-.93,4.52-1.81-9.12-2.31-17-4.31-24.83-6.26a7.46,7.46,0,0,0-2.73-.25c-11.93,1.65-21.72,6.61-28.61,16.69L422,413.42m48.73-33.53c-11.19-13.72-18-28.52-17.3-46.61-5.29,2.44-9.8,4.83-14.56,6.6-4.17,1.56-5.61,4.34-5.37,8.15a20.38,20.38,0,0,0,1.33,7.14c2.37,5.13,5.14,10.1,8,15a6.87,6.87,0,0,0,3.48,3.11c8.1,2.36,16.29,4.43,24.45,6.59m-158,42.75.43.8c1.72-.4,3.41-.89,5.15-1.18,9.29-1.56,18.54-3.7,27.9-4.42,10.07-.77,20.27-.21,30.4-.19,13.15,0,25.83,2.21,37.79,7.53,2.94,1.29,5.72,2.88,8.58,4.33l.82-.69a33.47,33.47,0,0,0-2.83-4.77,35,35,0,0,0-15.45-10.62,159.57,159.57,0,0,0-58.24-9.14c-7.37.23-14.08,2.14-19.86,6.66-4,3.13-8.15,6.09-12.19,9.18a25.76,25.76,0,0,0-2.5,2.51m21.64-24.88c-3.32-6.65-6.1-13-9.56-18.94a34,34,0,0,0-12.49-12.51c-4-2.28-7.81-4.75-11.88-6.81a14.49,14.49,0,0,0-5.84-1.25c-8.72-.28-17.44-.39-26.17-.55-1.35,0-2.71,0-4.06,0,23.17,12.88,42.69,28.68,54.53,52.21l15.47-12.15m180.91-6.06c-20.13-19.88-32.85-42.85-36.56-70.34-5.25,2.4-10,4.82-14.93,6.76-4.22,1.65-5.49,5-5.93,8.56a23.77,23.77,0,0,0,.5,9.95c6.57,20.46,18.29,36.39,42.06,41.32,5,1,9.91,2.49,14.86,3.75m56.36,14.63c-.58-.91-.63-1.1-.77-1.19-1.67-1.11-3.36-2.2-5-3.3-20.95-13.75-44.06-26.41-58-46.79-6.18-9.05-10.93-15.91-11.3-30.39.29-4.86,1.46-11.2-2.54-10.71-10,1.12-9.81,4.43-9.3,13,.16,2.62.23,5.4,1.23,7.77,3.28,7.79,6.36,15.76,10.63,23.07,8.12,13.91,18.19,26.49,31.74,36.23a17.41,17.41,0,0,0,5.27,2.77c9.25,2.58,18.55,5,27.86,7.39,3.17.82,6.43,1.38,10.18,2.18M295.37,428c5.17-4,10.06-7.72,14.86-11.54,3-2.42,3.29-3.37,1.81-6.78a64.14,64.14,0,0,0-10.88-17.06c-12.33-14-27.69-24.25-44.65-32.61a30.28,30.28,0,0,0-14.9-3.29c-4.64.18-9.29-.06-13.93-.1h-6.35a4.33,4.33,0,0,0,2.07,2.2c10.08,5.95,20.29,11.7,30.2,17.89,15.58,9.72,26.74,23.1,34.93,38.83,2.11,4.06,4.4,8,6.84,12.46m-3.47,3c-3.51-6.62-6.63-13-10.22-19.12-7-12-15.87-22.55-28.19-30.06-9.35-5.7-18.84-11.24-28.52-16.43-10.15-5.45-20.55-10.54-32.86-9.57-.9.07-1.84-.24-2.76-.25-5.44,0-10.89,0-17.37,0,8.07,3.45,15.18,6.32,22.14,9.49,19.53,8.89,38,19.33,53.27,34.13,11.9,11.52,22.48,23.92,27.45,39.76.31,1,.84,1.86,1.57,3.45L291.9,431m273.34-20.36a18.88,18.88,0,0,0-2-.77q-34.66-9-69.33-18a28.82,28.82,0,0,0-7.07-1.38c-9.48.06-18.9.61-27.95,3.78-13.06,4.58-24.22,11.44-31.75,22.87-.91,1.39-1.94,2.53-1,4.3,2.43,4.49,4.77,9,7.51,14.26,40.68-24.8,85.18-29.34,131.59-25.09M306.38,309.27c7.9,2,15.55,4.15,23.3,5.86,13.33,2.94,26.8,3.94,40.36,1.31,4-.78,7.81-2,10.86-4.94s6.47-2.9,10.31-1.62c10.36,3.47,20.91,6.4,31.89,7.22a188.43,188.43,0,0,0,25,.43c13.19-.77,23.4-4,36.18-7.11,4.61-1.12,5.9-1.27,10.07-2.16a4.28,4.28,0,0,1,4.77,2.06c5.34,11.76-1.49,19.55,8.68,35.8,8.69,16,21.71,23.66,35.93,35.49C556.21,392,572.11,401,586.91,408.16c4.76,2.31,9.86,4,14.85,5.9s10.15,4.26,15.46,5.59c7.69,1.93,13.51,5.59,21.32,7.13,6.92.81,9.55,2.76,9.07,5.7s-4.38,1.9-8,1.07c-4.69-1.08-9.66-3.93-14.38-4.88-14.52-2.92-26.53-8.05-41.15-10.49a223.17,223.17,0,0,0-25.47-2.49c-11.67-.58-23.4-1.2-35.06-.78-23.79.86-46.81,5.1-68,16.15-5.19,2.71-10.73,4.83-16,7.41a20.32,20.32,0,0,0-5.23,3.68c-1.56,1.54-3.21,1.6-4.13.06-1.67-2.84-4.53-3.95-7.16-5.54-15.5-9.39-32.65-13.15-50.83-13.35-8.73-.1-17.47-.36-26.18.06A119.66,119.66,0,0,0,301,434.16c-7.41,3.47-14,8.56-20.91,12.95-.91.59-1.63,1.47-2.57,2-2.66,1.49-4.54.8-5.51-2.05-1.07-3.17-1.8-6.46-3.05-9.56-4.6-11.4-12.75-20.53-21.42-29.28-16-16.17-35.43-27.75-56.52-36.88-10.44-4.52-21.16-8.57-32-12.09-6.26-2-13-2.59-19.58-3.81-1.63-.3-3.29-.52-4.88-.95-2.7-.73-3.06-2.9-3-5.06s1.85-2.5,3.55-2.6a82.06,82.06,0,0,1,10.5-.34,253.53,253.53,0,0,0,42.33-.64c9.6-.94,19.24-1.53,28.81-2.68,15.46-1.84,30.95-3.85,45.69-8.88,13.69-4.68,26.6-10.84,37.46-20.31,2-1.76,4.38-3.17,6.54-4.72"/></g><path class="a8218d64-1b68-4db0-b88c-837ea6b05f1e" d="M441.84,89.16l6.19-2c-.86-4.47-1-8.62-4.25-12.8-1.77,4.23-2,9.15-1.94,14.8m12.27,2.4a37.85,37.85,0,0,0,3-4.69c6.39-14.88.89-32-17.55-33.59a51.75,51.75,0,0,0-12.72.72c-8.36,1.37-16.93,2.15-24.79-.75a342.06,342.06,0,0,1-39.61-17C335.62,22.32,307.51,13.8,277.48,12a64.44,64.44,0,0,0-22.66,2.59c-2.33.72-5.32,2.13-4.71,5s6.56,4.25,10.75,4c12.14-.83,24.21.37,36.22,1.94a149.65,149.65,0,0,1,14.76,3c.77.17,2.5.82,2.19,2.29s-6.3.53-9.16.28c-8.51-.75-17-1.66-25.55-2.14a67.39,67.39,0,0,0-11.67.77c-2.76.34-7.58,2.74-7.14,4.81s3.64,1.64,5.34,1.78c5.76.49,11.54.76,17.31,1,5.59.21,11.21-.09,16.76.47,5.73.58,11.39,1.89,17.06,3,1.62.3,4.34.46,3.72,2.36s-1.86,1.45-4.58,1c-3.47-.62-7.29-1.25-10.76-1.52-8-.64-16-1-24-1-2.94,0-8.3,1.38-8.41,3.75s2.15,3.5,4.43,3.75a58.76,58.76,0,0,0,7.21.75c6.89-.11,13.77-.57,20.65-.66,10.08-.14,20.17-.23,30.25,0a117.79,117.79,0,0,1,13.87,1.38c2,.28,5.8,2.05,5,3.81s-8.42,0-12.47,0c-7.24-.06-14.49-.31-21.72-.17-11.92.22-23.89,1.53-35.74.8-10.15-.61-20.31-2.85-30.2-5.4-19.3-5-38.37-10.81-57.62-16a62.49,62.49,0,0,0-13.21-2.15c-1.14-.07-4.14.7-4.58,2.58a4.19,4.19,0,0,0,.83,3.91,8.61,8.61,0,0,0,3.5,2.27c3.77,1.62,7.54,3.27,11.42,4.56,4.78,1.59,9.69,2.77,14.49,4.29,2.17.68,6.64,2.9,5,5.23s-12.25-1.93-18.46-2.78c-6.46-.88-12.15-2.17-18.6-3-1.85-.23-6.34-.74-7.5,1.32s3.29,4.6,5.52,5.3c7.64,2.41,15.33,4.65,23,6.81,2.87.81,5.89,1.07,8.74,1.93,1,.3,2.55.24,2.55,2.52s-1.92,1.84-2.93,1.9c-2.21.15-4.46-.35-6.69-.44-7.26-.29-14.52-.63-21.78-.69-2.71,0-8.2.62-8.16,3.2s3,3,4.74,3.59a37.34,37.34,0,0,0,9.67,2.5c7.41.67,14.87.86,22.3,1.26,2.91.16,7.71.44,7.95,3.16s-4.61,2.33-7.17,2.4c-8.92.23-17.85.47-26.76,1-3.09.17-8.3.45-8.38,3.9s5.2,4.44,8.46,4.86c7.92,1,15.87,2,23.83,2.43,14.51.7,29,.82,43.55,1.38,17.74.69,35.13,3.93,52.46,7.63,15.76,3.37,31.6,5.43,47.71,2.81,1.66-.27,3.65-.54,5.34-.78a1.4,1.4,0,0,1,.64,2.73,62.12,62.12,0,0,1-5.81,2.24c-10.42,3.32-21.08,2.37-31.57.91-12.52-1.75-24.92-4.48-37.39-6.63a14.48,14.48,0,0,0-6,.26c-3.24.82-4,3.89-1.28,5.89a16.87,16.87,0,0,0,7.06,3.15c6.59,1.09,13.26,1.69,19.91,2.43,1.59.18,4.42.06,4.15,2.29s-5.32,2.16-8.11,1.92c-9.82-.85-19.64-1.57-29.08-5-3.41-1.24-11-2.07-11.46.84s2.79,4.17,4.37,5.14a18.83,18.83,0,0,0,6.76,2.61c8.08,1.25,16.21,2.16,24.32,3.24,1.72.24,5.27,1,5.66,2.63s-4,2.14-6.35,2c-11.69-.83-23.31-2-34.62-5.53a34.93,34.93,0,0,0-9.92-1.07c-1.38,0-4.47,0-4.93,3s9,7,14.26,8.32a119.26,119.26,0,0,0,16.48,2.95c10.17,1.15,20.38,1.88,30.55-.3a203.36,203.36,0,0,0,44.4-15.24c16.26-7.68,32.54-15.12,50.52-17.58,3.3-.45,6.69-1.33,9.91-1,7.37.84,12,6.27,13.76,15.11.56,2.86,1,5.75,1.52,8.62,1.34-6,1.53-12.07,2-18.07.32-3.75,2.1-11.6,4.11-12s1.15,3.94,1,5.2c-.68,7.72-1.66,15.42-2.28,23.14-.31,3.76-.06,7.56-.06,11.34a7.77,7.77,0,0,0,1.62-4.06c2.12-10.55,3.42-21.36,10.11-30.37a8.25,8.25,0,0,0,1.13-4.6c0-6.45-.37-12.91-.16-19.34a29.47,29.47,0,0,1,2-9.37c1.25-3.24,4-3.47,6-.68a22.88,22.88,0,0,1,3,6c1.49,4.39,2.72,8.87,4.27,14.07M178.41,61c-1.47-.69-3-1.3-4.39-2.09a34.16,34.16,0,0,1-6.2-3.79c-3.95-3.47-3.08-8.1,1.93-9.54a37,37,0,0,1,15.15-.37,45.08,45.08,0,0,1-6.62-4c-3.66-2.68-5.12-5.88-4.07-9.06a8.31,8.31,0,0,1,8.53-5.24,117.42,117.42,0,0,1,18.18,3c21.11,5.49,42.13,11.33,63.2,17,1.23.33,1.86.65,3.48,1,1.22.29,2.71.81,2.24.07-.95-1.51-1.62-5.11-.2-6.07,2.47-1.67-5.53-1.57-8.08-2.57-6.41-2.5-7.06-5-2.92-10.4a1.45,1.45,0,0,0,.53-1.49c-.24-.84-2.43-.23-3.55-.54-2.13-.58-4.46-.92-6.3-2-5.57-3.43-5.53-9-.27-12.75,3.67-2.62,7.91-3.38,12.12-4,11.56-1.64,23.09-.39,34.52,1.33,8.64,1.29,17.4,2.56,25.73,5.11a272.36,272.36,0,0,1,30.85,11.72c12.81,5.68,25.36,12,37.88,18.29,8.83,4.46,18,5.55,27.69,4.71,7.41-.64,14.9-1.51,22.27-1,11.93.83,19.25,8.63,23.26,19.43,3.7,10,.73,19.07-5.69,27a39.7,39.7,0,0,1-7,6.47c-7.46,5.69-12.19,13.21-14.91,22.16q-5,16.31-9.94,32.6a15.1,15.1,0,0,1-.86,1.94c-2.7.43-2.88-1.56-3.15-3.15-1.07-6.34-2-12.72-3-19.06a131.21,131.21,0,0,0-2.5-13.4c-2.47-9-8.72-12.51-17.86-11-11.87,1.92-23.08,5.91-34.05,10.71-13.67,6-27.32,12-41.91,18.46l-.25,39.61a43.56,43.56,0,0,0,4.95.34c5.76.24,11.7,4.25,15.08,9,2.91,4.14,6.21,8.15,8.13,12.83s1.55,7.24-.56,7.42-3.33-2.77-3.83-4.2a35.54,35.54,0,0,0-9.58-14.45c-2.92-2.73-5-6-9.17-6.14A29.55,29.55,0,0,1,336,200.74a48.28,48.28,0,0,1,.9,8.11c0,1.72-.11,4.67-2.26,4.51s-2.38-3.55-2.52-4.59c-1.22-9.14-6.87-21.56-14.16-26.51-2.74-1.86-2.58-1.87-1.82-5.28a42.51,42.51,0,0,0,1.25-11.22c.17-7.94.05-15.9.05-24.31l-25.28,4.8L292,178.92c12,10.33,11.09,34.1,8.18,36.11-1.93,1.33-2.76-1.38-3-2.46-.75-4.47,0-9.89-.81-14.36a35.15,35.15,0,0,0-1.82-6.53c-.73-1.94-1.85-5.93-4.68-6.47-1.69,9.66.73,29-2.73,31.13s-3-3.76-3-5.68c-.09-6-.22-22.45.26-26,.41-3.07,1.89-12.49,2.09-18.8s.05-12.52.05-19.46c-5-.51-9.73-1-14.47-1.48-8.53-.77-17.13-1.31-25.06-5a42,42,0,0,1-8.06-5,7,7,0,0,1-2.69-7.6c.83-3,3.27-4.66,6.12-5.23,2.53-.51,6,0,8.79-.14a5.22,5.22,0,0,1-1-2.67c-.49-4.46,1.08-7,5.33-7.57,3.48-.42,7-.08,10.59-.08a6.24,6.24,0,0,1,1.19-7.42c-4.76-.58-9.5-1.48-14.27-1.7-13-.6-26.08-.75-39.11-1.4-10.58-.52-21.17-1.26-31.7-2.4-3.4-.37-6.73-2.09-9.95-3.53A7.28,7.28,0,0,1,167.66,88c.09-3.35,2.35-5,5-6.24,1-.49,2-.92,3.68-1.66-2.44-1.59-4.54-2.92-6.6-4.32-2.44-1.66-4.49-3.79-3.94-7s3.08-4.65,5.9-5.45c2.11-.6,4.3-.88,6.46-1.3.09-.36.17-.72.26-1.08"/></g></svg>