<svg xmlns="http://www.w3.org/2000/svg" xmlns:xlink="http://www.w3.org/1999/xlink" viewBox="0 0 810.61 624.84"><defs><style>.fdf5518e-cb5d-4f6f-83c0-5cfdc1ba9ce9{fill:none;}.acb6c564-6caf-4485-8f10-1950c2621246{clip-path:url(#b0454547-c671-4b74-bea7-9966136c02aa);}.aa66abba-0837-4477-aec1-8f569aaed7ad{fill:#bbae80;}.f9d53c8e-e987-46e0-8450-ab66ab8966b5{fill:#ebe3d6;}.b03cac48-e47f-4f7a-b2f5-6e5f11106849{fill:#d4d5e9;}.a5eec914-23a4-40fb-aff6-35300e47b47f{fill:#141a4d;}.a8d7fe28-12ff-476e-9dc7-bafba24b57b2{fill:#151a4c;}</style><clipPath id="b0454547-c671-4b74-bea7-9966136c02aa"><rect class="fdf5518e-cb5d-4f6f-83c0-5cfdc1ba9ce9" x="21.45" y="5.81" width="765.12" height="604.38"/></clipPath></defs><g id="ab14353c-7122-49b6-ab96-5845e6173912" data-name="Layer 1"><g class="acb6c564-6caf-4485-8f10-1950c2621246"><path class="aa66abba-0837-4477-aec1-8f569aaed7ad" d="M290.78,434.13H250.4l-34.51.36-16.47,3.93-15,17.2-2.31,18.16,5.14,21.29L196.8,512l16.89,14.68,19.09,13.22,23.5,11L276.83,556l24.23,8.08L329.7,570l36.71,11.75,25.06,8.07,16.79,8.08L428.82,534l15.41,4.41L474,544.55l38.18,3.53,39.94,1.17,10,3.53,8.81-4.11L615,516s16.45-23.72,14.1-39.58-10.57-31.72-27-36.41-96.92,1.17-96.92,1.17l-14.12,1.67-19.39,2.95-10,1.84L448.2,450l-15.86,1.76-26.61-.59-17.44-2.93L370.67,450Z"/></g><polygon class="f9d53c8e-e987-46e0-8450-ab66ab8966b5" points="486.23 556.07 486.23 574.08 481.03 582.8 453.56 591.71 478.31 596.66 495.63 600.61 516.91 605.57 541.64 610.19 555.03 610.19 563.44 606.55 573.33 597.65 580.26 573.89 571.35 559.04 557.5 551.12 536.71 549.14 511.96 548.15 475.83 545.68 486.23 556.07"/><polygon class="f9d53c8e-e987-46e0-8450-ab66ab8966b5" points="290.24 559.29 283.43 559.29 277.86 566.1 277.86 584.03 284.05 596.41 293.33 600.74 305.7 600.74 322.41 595.79 345.92 586.51 362.62 580.01 338.49 572.9 290.24 559.29"/><path class="b03cac48-e47f-4f7a-b2f5-6e5f11106849" d="M381.31,158.15h50s-5,23.76,10.52,33,47,33.41,47,33.41L513,252.44,529,288.32l6.8,29.08,2.48,25.36,7.42,21,9.9,14.23,16.71,10.52L590.28,396l19.18,6.19,8,3.09,3.09,14.23v22.28l-6.19,5.56-16.7-6.8-31.55-3.72H540.79l-19.17-14.22-22.89-28.46-10.52-30.94v21.66l1.85,27.22L495,440.51l-8,3.71-52.59,7.42-39-2.47-45.78-3.09-28.46-6.81-8-2.48,3.09-19.17,1.86-29.08-.62-21.65-4.33,13-17.32,30.31s-4.95,13-29.7,18.56a183.17,183.17,0,0,1-45.78,4.33L195,441.75,190,422V401.53l14.85-6.19,34.65-11.75,7.67-5.69,9.9-6.93L263,358.84l5.57-21,4.33-22.27,6.8-30.93L289,251.2l19.18-23.51,24.13-19.05,20.37-10.89,18.23-16.83Z"/><path class="a5eec914-23a4-40fb-aff6-35300e47b47f" d="M343.42,76c.33,2.16-18,5.31-18.75,5.43-9.78,1.52-22.26-.06-31.15-4.83a125.13,125.13,0,0,0-13.31-6.28,32,32,0,0,0-8.89-1.87c-9.58-.8-18.87,1.3-28.24,2.92-10,1.72-20,3.26-30.13,2.4a109.58,109.58,0,0,1-19.8-3.74,71.2,71.2,0,0,0-19.4-3c-7,0-13.83,1.91-20.66,3.74a163.83,163.83,0,0,0-27.94,10.39A80.84,80.84,0,0,1,86.3,88.76a48.92,48.92,0,0,0-26,6.31C53.13,99,48.61,104.87,47.33,113A12.06,12.06,0,0,0,51,123.88c6.32,6.36,14.09,9.56,22.87,10.67s17.41.43,26.15-.29a237.18,237.18,0,0,1,27.56-1,86.38,86.38,0,0,1,28.11,6.17c5.7,2.2,11.5,4.15,17.72,4.63,8.5.65,16.85-.51,25.07-2.17a150,150,0,0,1,37.41-3.1c7.77.39,15.49,1.78,23.24,2.49a51.21,51.21,0,0,0,24.26-3.7c7.63-3.11,15-7,23.25-8.4a31.52,31.52,0,0,1,12.72.5c4.3,1,22.64,3.53,27,4.48,1.06.23,7.25.72,6.21,3.43-.39,3.45-9.19.15-13-.32-4.38-.54-24.35-4.2-28.73-4.23-7.38,0-14.22,2.59-20.52,6.13-10.31,5.8-21.34,7.37-32.87,6.56-8.08-.57-16.14-1.48-24.22-2a112.37,112.37,0,0,0-26,1.62c-8.14,1.37-16.26,2.87-24.45,3.77-11.11,1.21-21.57-2-31.83-5.81a86,86,0,0,0-21.39-4.84c-9.7-1-19.2-.08-28.82.79-11.07,1-22.21,1.81-33.19-1.31-6.29-1.79-12.23-4.16-17.15-8.48C42,122.06,41,113.88,46,103.78c3.54-7.11,9.49-12,16.81-14.88a67.36,67.36,0,0,1,25.52-5.13,82.8,82.8,0,0,0,16.43-1.28,96.57,96.57,0,0,0,15.6-4.9c9.29-3.52,18.36-7.68,27.74-10.94,9.61-3.35,19.66-4.89,29.85-3.28a171.49,171.49,0,0,1,17.43,4c8,2.16,16.17,3.78,24.47,3,7.88-.7,15.71-2.14,23.56-3.26,7.11-1,14.2-2.38,21.34-3,8.47-.71,18.51.74,25.35,5.6,9.64,6.84,18.35,9,29.63,8.22,10.81-.81,23-5.45,23.68-1.93"/><path class="a5eec914-23a4-40fb-aff6-35300e47b47f" d="M23.66,227.76c.5-2.26,4.27-2.07,5.08-2.26a53.64,53.64,0,0,1,29,.83c5.53,1.77,11,3.7,16.64,5,8.45,2,16.94,3,25.66,1.86,7.36-.94,15-1.4,22.22.79,6.59,2,12.71,5.67,16.51,13,4.15,8,4.21,22-2.79,30.9a33.05,33.05,0,0,1-9.51,8.72c-5,2.79-9.74,6-14.74,8.62-7.71,4.07-14.3,10-20.68,16.35C84.3,318.36,77.38,325,69.2,329.24a47.48,47.48,0,0,1-12.66,4.48c-5.13,1-10.41,1-15.61,1.45s-8.77,1.26-14,1.72c-1,.09-3.75.63-4.78-.47-2.37-3.05.8-4.17,2.44-4.34,8.69-.9,17.37-1.92,26.05-2.85C62.55,328,72,323.41,81.11,314.75c5.36-5.11,10.81-10.09,16.2-15.17C103,294.25,109.52,290.73,116,287c4.66-2.71,9-4.18,13-8,9.5-9.05,12.44-28.47-.84-36.76-4.14-2.58-9.63-4.56-14.31-4.41-8.09.28-16,.79-24.06.83a65.34,65.34,0,0,1-17.85-2.26C63.17,234,56.81,231,47.47,228.87c-4.6-1-9.26-.54-16.16.13-1.34.13-4.55.89-6,.89C24,230,23.41,229.08,23.66,227.76Z"/><path class="a5eec914-23a4-40fb-aff6-35300e47b47f" d="M423.1,68.79c0,1.19-2.21,3-3,4.19-2.93,4.4-1.83,8,3.07,10a12.57,12.57,0,0,0,12-1.12l3.62-2.29c2.34-1,2.63,1.28,0,3.48-4.85,4.28-12.66,5.73-18.72,1.8-.73-.48-1.4-1.07-2.51-1.92.88,5.14,2.44,8.25,4.82,13.18,2.37,5.12,4.75,10.12,5.13,14.91.34,3.35-1.38,6.56-4.34,7.45-1.79.55-3.5.35-4.36-1.64a3.72,3.72,0,0,1,.29-3.47c1-1.64,2.66-1.35,3.81-1.07a5.88,5.88,0,0,1,1.43.91c1.12-4.8-1.81-9.19-3.58-13.2-2.1-4.79-4.58-8.9-5.45-14.22-1.22-7.18,1.39-14.3,5.37-17.09.27-.19,2-1.43,2.4.08"/><path class="a5eec914-23a4-40fb-aff6-35300e47b47f" d="M409.07,78a5.13,5.13,0,0,1-1.39,2.64c-6.44,6.82-15.69,6.78-22.73-.07-.42-.41-1.13-1.93-.43-2.69s2,0,2.68.38c1.57.78,2.91,2.08,4.51,2.76a12.16,12.16,0,0,0,13.1-1.76c.91-.72,1.77-1.39,2.74-2,.74-.4,1.58-.24,1.52.76"/><path class="a5eec914-23a4-40fb-aff6-35300e47b47f" d="M423.48,123.72c.64.63-.23,2.63-2,4.21-4.29,3.78-14.28,4.81-19.74-.39a11.48,11.48,0,0,1-.92-1,1.65,1.65,0,0,1-.17-2.4c.77-.93,1.91-.31,2.35.1,2.74,2.5,5.89,3.27,9.59,3.27a11.57,11.57,0,0,0,5.47-1.34,21,21,0,0,0,3.41-2.06c.74-.55,1.51-.89,2-.44"/><path class="a5eec914-23a4-40fb-aff6-35300e47b47f" d="M412.18,118.64c-1.79.13-3.82-1.66-3.65-3.4s1.08-3.24,3.13-3.28c1.8,0,3.43.38,3.58,2.62.12,1.84-1.51,4-3.06,4.06"/><path class="a5eec914-23a4-40fb-aff6-35300e47b47f" d="M129.07,375.54c-.83,4.12.94,5.69,3.18,6.11a6.15,6.15,0,0,0,3.4-1.11c2.08-1.32,3.57-4.31,3.11-6.43-.59-2.68-2.7-4.62-5.8-3.33A8.24,8.24,0,0,0,129.07,375.54Zm550.78,7a6.42,6.42,0,0,0-4.69-6.45c-1.66-.52-3.31.88-3.92,2.74-1,2.85,1.6,7.09,4.55,7.57a3.47,3.47,0,0,0,4.06-3.86m16.06,4c2.54.23,5.28-3.28,4.29-5.63a16,16,0,0,0-3.93-5.45c-1.81-1.25-3-1.09-4.06-.29a7.2,7.2,0,0,0-1.46,3.81c-.27,3.75,1.79,7.27,5.16,7.56M109.53,375.31c-.61,3.67,1.75,6.25,4.82,6a5.65,5.65,0,0,0,3.75-2.3,7.66,7.66,0,0,0,.84-7.34c-.9-2.31-3.65-2.68-5.73-1.3C111.44,371.5,109.76,373.32,109.53,375.31Zm41.21,6.8c-.07-3-1.24-4.79-3.29-5.15a4.49,4.49,0,0,0-5,2.22,11.72,11.72,0,0,0-1.08,2c-1.07,2.79.67,6.64,3.29,7.38,2.81.8,4.73-.58,5.68-4.16a19.39,19.39,0,0,0,.37-2.25m508.43,1c-.94,1.8-.15,4.48.4,6.45.1.36.19.7.29,1.05.55,1.93,1.68,3.1,3.82,3.14a4.3,4.3,0,0,0,4.26-2.68c1.4-2.78,1-5.3-1.49-8.18-1.72-2-5.35-2.59-6.88-.44a5.52,5.52,0,0,0-.4.66M158,398.26a6,6,0,0,0-5.89-6,5.45,5.45,0,0,0-5.66,5.61c0,2.5,3.53,5.51,6.61,5.58,2.89.06,4.93-2.07,4.94-5.15m493.89,5.05a5,5,0,0,0,4.89,5.29c2.89-.05,6.68-3.23,6.69-5.62a5.83,5.83,0,0,0-5.62-5.82,6.46,6.46,0,0,0-6,6.15M287.21,561.55a5,5,0,0,0-4.34,1.62c-2.22,2.85-3.6,4.89-4.27,8.23-.79,7.05,0,13.23,3.53,19.58,2.05,3.67,4.68,5.19,8.51,6.16a1.76,1.76,0,0,0,2.2-1.8,18.15,18.15,0,0,1,2.33-10.45,29.19,29.19,0,0,0,2.05-5,17.93,17.93,0,0,0-.73-13.95,5.61,5.61,0,0,0-2.65-2.74,47.69,47.69,0,0,0-6.63-1.68M554,605.08c2.73-1,4.77-2.1,6.92-2.39a14.54,14.54,0,0,0,8.28-4.14c6.8-6.63,9.34-14.9,8.06-24.17C576.1,566,570.41,560.59,564,555.9c-1.5-1.1-3.54-1.46-5.33-2.16,4.62,6,4.46,12,1.38,18.12-.47.94-.85,1.93-1.27,2.88a20,20,0,0,0-.87,14.93c2.11,5.8,1.28,10.18-3.27,14.08-.21.18-.27.52-.67,1.33M490.52,377.83c1.1,21.87,1.23,48.71,6.13,61.31,1.17.2,2.52.77,3.77.6,11.59-1.62,23.17-3.36,34.75-5.06-22.86-9.58-38.33-34.24-44.65-56.85m-186.62,187a1.31,1.31,0,0,0-1.61,1.44c.37,3.11,1,6.32,1.06,8.89.14,5.14-2.16,9.56-4.39,14-1.5,3-1.87,5.92.41,9a46,46,0,0,0,15-2.23c10.32-3.53,20.46-7.55,30.68-11.35,3-1.12,6-2.21,9.87-3.6a22.15,22.15,0,0,0-2.17-1.08c-15.13-4.69-30.26-9.39-45.42-14-1-.3-2.27-.73-3.47-1m13.45-194.6-.43-.07c-.27,1-.61,1.89-.81,2.86a113.36,113.36,0,0,1-7.75,23.43c-6.14,13.67-15.8,23.9-29.35,30.39-1.57.75-3.09,1.59-4.63,2.39l.15.77c14.74,1.54,22.35,2.31,37.17,3.86a17,17,0,0,0,1-2.83c.82-5.36,1.37-9.57,2.44-16.79-.54-12.85,1.41-19.23,2.12-29.8.31-4.72.05-9.48.05-14.21m304.24,66a43.34,43.34,0,0,1,5.71-.63c8.4.24,16.79.61,25.18.93,5.09.2,10.23,1,15.25.49,9.16-.84,17.22-5.09,24.84-9.92,5.54-3.51,8.37-9.09,8.83-15.5a111.25,111.25,0,0,0-.94-23.7c-2.51,1.55-5.8,1.89-10-.78.2,1.46.36,2.89.6,4.3a66.74,66.74,0,0,1,.37,20.49.52.52,0,0,0,0,.11,1.31,1.31,0,0,1-2.61-.18c-.06-2.32.45-4.68.6-8.7a25.71,25.71,0,0,0-1.57-9.18c-1.08-3.06-3.4-6.16-5.41-8.61-1.32,3.05-5,4.78-7.23,4.15,3.39,6.33,4.52,4.91,6.33,26.07.06.27.12.53.17.8.36,1.94-2.68,2.53-3,.6-.1-.59-.18-1.21-.23-1.79-1.48-19.45-3.94-21.24-7.45-24-.82,3.93-3.29,6.7-6.23,5.89.56,1.86,1.63,3.72,1.59,5.55-.16,6.74-.64,13.48-1.12,20.21-.06.7,0,4.3-2,2.75-2.59-1.45.15-10.79,0-17.56-2.65,5.14-7.94,4-12.11,2,0,2.26,0,4.18,0,6.09-.06,2.69-.06,5.4-.32,8.07-.11,1.13-.26,2.64-1.9,2.34-.82-.18-1-1.46-1-1.67-.13-6.13-.44-11.54-.19-17.65.27-6.61,2.69-12,10.28-13.45l-1.67-4.11a41.15,41.15,0,0,0-14.45,9.64c-5.56,5.5-11.85,9.67-20.26,10.51Zm-433.44-5.38V404.59c-8.8-.87-15.18-5.41-20.94-11.15a40,40,0,0,0-13-8.72c-.22-.09-.53,0-1,0-.37,1.16-.77,2.39-1.23,3.84,6.62,1.4,9.59,5.84,9.93,11.92.34,6.41.1,12,.07,18.42,0,.4.17,1.87-1,2.07-2,.47-2-.94-2.11-2.28-.23-2.53-.23-5.09-.28-7.63,0-1.93,0-3.85,0-5.81-5.7,2-6.72,2.31-11.74-1.12-1.43,5,2.94,15.08-.9,15.22-3.28.25-1.57-6-1.93-9s-.15-6.31-.62-9.41c-.5-3.38.63-6.37,1.62-9a6.49,6.49,0,0,1-6.77-4.93,29.58,29.58,0,0,0-1.63,3.72q-2.75,9.72-5.34,19.48c-.4,1.52,0,4.92-2.31,3.74-2.34-1.35.22-8.09,6.83-30.23-2.78,2.06-7.74.52-8.41-3.05-1.28,3.16-2.24,7.22-3.33,10.3a58.87,58.87,0,0,0-2.64,9.05c-.53,3.05,1.7,10.83-.63,10.67s-2.4-3-2.57-4.33a71.7,71.7,0,0,1,.48-20.58c.21-1.28.27-2.59.39-3.8-4.05,3.16-7.36,2.51-10.46-.35-.22,7.2-.45,15.6-.39,22.79.07,7.48,3.1,13.71,9.52,17.87,2.87,1.86,6,3.28,9.09,4.88,8.37,4.38,17.24,5.53,26.61,4.64a246.09,246.09,0,0,1,34.63-1M414.59,583.76c1.49.24,3.07.53,4.66.74,7.42,1,15.06,1.12,22.21,3.06,9.47,2.56,18.46,1.17,27.52-1,5.23-1.24,9.91-4.05,12.55-8.85,8.88-16.15-1.08-31.2-16.4-33.55-8.76-1.35-17.47-2.62-25.92-5.38-3.09-1-6.35-1.47-9.77-2.22l-14.85,47.17m53,7.67c0,.25,0,.49,0,.73.67.15,1.33.35,2,.45,14.8,2.16,29.55,4.53,44,8.37,8.42,2.23,17,3.26,25.67,4.25,5.68.64,8.18-1.33,12.07-4.81,2.2-2,3.24-6.4,2-9.46-2.77-7.15-2.56-12.6,1-19.58a19.66,19.66,0,0,0,1.38-3.33,12.91,12.91,0,0,0-.49-9.61c-1.6-3.4-4.85-4.29-7.81-5.62-7.45-3.32-14.35-3-22.22-3.45-4.77-.29-9.6.6-14.35.28-7.62-.5-15.2-1.56-22.79-2.41-2.17-.24-4.33-.56-6.5-.85,4.12,4.84,7.89,11.09,7.76,17.18a70.8,70.8,0,0,1-1.2,11.14c-1.2,6.64-4.92,10.9-10.82,13.94-2.63,1.36-7,1.67-9.78,2.78m-44.55-435c2-.31,3.81.09,3.57-2-.89-7.6.67-9.54,7.14-24.34,8.86-20.27,9.08-29.64,7.69-45.13-1-11.26-.11-21.86-6.08-31.61-4.15-6.75-10.46-10.24-18.2-10.94s-14.66,2-20.36,7.5a46.23,46.23,0,0,0-11.63,18c-1.85,5.2-3.39,10-5,15.27-.31,1-1.65,4.39-2.26,4.37-1.11,0-1.8-1.43-2.53-2.85-.52-1-1.14-2.08-1.79-3.09a6,6,0,0,0-6.08-3,6.43,6.43,0,0,0-5,5.15,28.68,28.68,0,0,0,4,21.37c3.46,5.55,9.28,7.66,11.08,3.92,3.55,7.32,4.69,15.25,5,23.3.25,7.23.1,14.47.07,21.66a2.79,2.79,0,0,0,2.44,2.77C394.12,158,412.68,158,423.06,156.42Zm6.4,375.84c2.22.53,4.39,1,6.53,1.56,6.37,1.73,12.63,4,19.1,5.13,10.9,1.84,21.89,3.3,32.91,4.2,14.18,1.17,28.37,2.52,42.65,2.33,9.77-.13,19.45.71,28.87,3.65a6.24,6.24,0,0,0,3.89-.13,93.21,93.21,0,0,0,21.22-11.62c8.48-6.28,15.76-13.8,23.08-21.34a76.37,76.37,0,0,0,17.47-28.52,34,34,0,0,0,1.47-7c.93-7.54-2-14.17-5.34-20.58a31.29,31.29,0,0,0-13.88-13.61c-7.3-3.77-15-4.94-23-5.2-5.85-.19-11.73,0-17.55-.47a226.19,226.19,0,0,0-45.36.77c-14.58,1.72-29.16,3.4-43.73,5.19-7.43.92-14.89,1.77-22.24,3.16-13.4,2.53-26.7,5.54-40.51,4.13-6.84-.7-13.73-1.08-20.58-1.7-10.14-.91-20.26-2.11-30.41-2.8-10.77-.75-21.54-1.43-32.05-4-7.41-1.85-19.39-5.78-26.88-7.12A188.06,188.06,0,0,0,267,434.75c-13,.07-26.1.73-39.14,1.29a96.14,96.14,0,0,0-14.7,1.39c-10.08,2-18.25,7.05-23.91,16-7.53,12-7,24.47-3,37.16,4.47,14,14.06,24.33,25.39,33a152.26,152.26,0,0,0,36.08,20.05,185.71,185.71,0,0,0,22.11,7.64c7.62,2,13.61,4.32,22.67,6.57,1.93.13,4.46,1.17,6.33,1.68,12.29,3.35,24.08,5.81,36.25,9.55a634.14,634.14,0,0,1,66.65,24.44,42.91,42.91,0,0,0,5,1.44c7-23.08,14.15-45.53,19.71-68.76-2.12-.62-3.66-1.13-5.23-1.53-13.2-3.42-26.59-6.06-39.26-11.42-7.58-3.2-15.65-5.25-23.26-8.38-9.42-3.86-18.63-8.24-27.88-12.51q-16.74-7.74-33.37-15.7c-2.5-1.2-5.2-2.28-7-4.82,2.43-1.66,4.65-1.1,6.91,0,10,4.7,20.07,9.44,30.15,14.06s19.46,10.52,30,14.33c19.32,7,38.62,14,58.66,18.65a11.79,11.79,0,0,0,8.24-.68c15.31-7.15,31.14-13.08,46.5-20.15,17.83-8.2,36.54-14.33,55.39-19.86,5.17-1.52,10.47-2.65,15.75-3.7,1.67-.33,3.77-1.29,5.49,1-2.05,2.23-4.78,2.66-7.25,3.44-10,3.15-20.11,6-30.08,9.31-11.21,3.71-22.64,6.93-32.89,13.1a23.56,23.56,0,0,1-3.3,1.41c-11.95,4.84-23.91,9.65-35.84,14.53-3.11,1.28-6.12,2.81-9.56,4.4,5.92,3.37,1,7,.9,10.59M193.79,437a6.88,6.88,0,0,0,6-.56,42.53,42.53,0,0,1,16.65-5.15c12.11-.77,24.25-1,36.38-1.49a54.7,54.7,0,0,0,9.69-.78c3-.67,5.9-2.14,8.79-3.36A66.82,66.82,0,0,0,290,414.3c11.61-10.29,17.57-23.8,21.1-38.41,2.18-9,3.35-18.29,4.69-27.48,1.41-9.63,2.51-19.3,3.7-29,.53-4.31.87-8.64,1.45-12.95.13-.94.32-5.9,2-6,3.46-.47,1.39,9.41,1.18,12.33-.68,9.26-1.57,18.5-2.29,27.76-.24,3.15-.37,6.31-.41,9.47-.1,8.52-.2,17-.13,25.56.07,9.14-.44,11.31,0,20.44.21,4.31-.54,12-1.34,17.65-.8,7.22-1.92,9.46-2.46,14-.75,2.71-1.82,8,2.46,9.31,6.15,1.87,11.9,2.24,13.64,2.68,9.17,2.27,14.32,3.59,23.81,4,6.14.27,13.94,1.06,20.06,1.6,13.71,1.23,22.67,2.3,36.38,3.48a104.54,104.54,0,0,0,28.35-1.34c8.52-1.59,13.37-2.13,21.94-3.47,7.38-1.16,16.82-1.9,24.2-3.06a3.8,3.8,0,0,0,3.15-4.35c-.44-2.81-.86-5.49-1.4-8.14-2.48-12-2-24.28-2.79-36.38s-.74-21.46-2.32-31.62c-2-12.82.91-24.88-.69-37.86a111.7,111.7,0,0,1-.79-12.39l-.09-7.44c-.56-5.25,3.33-6.72,4-3,.14.74.22,3.38.26,3.67.29,1.91.17,3.88.41,5.81a69.59,69.59,0,0,0,.56,10.94c1,11.15-.24,20.41,1.15,30,.8,5.6.85,11.27,2.19,16.77,1.79,7.44,2.75,14.43,8.07,22.38,7,13.27,9.69,20.74,18.7,29.23,8.43,7.94,18.93,11.94,29.38,16.1a6.8,6.8,0,0,0,2.22.26c11.69.33,23.38.61,35.07,1,8.16.23,16.07,1.6,23.53,5.14,6.64,3.15,7.62,2.44,7.88-4.79.26-7,.78-14.07,1.14-21.11a39.75,39.75,0,0,0-.06-4.5,6.62,6.62,0,0,0-4.93-6.3c-2.28-.76-4.57-1.49-6.9-2.05-14-3.38-27.61-7.75-40.24-15.1-13.56-7.9-22.59-18.74-26.71-34-2.56-9.51-3.3-19.17-4.31-28.85a190.26,190.26,0,0,0-7.45-36.49c-4.7-15.2-12.82-28.8-22.1-41.75a86.24,86.24,0,0,0-17-17.8c-7.49-5.86-15.4-11.22-23.29-16.54a201.6,201.6,0,0,1-24.77-20,34.2,34.2,0,0,1-11.45-25.94c0-.15.09-1.1.09-1.23,0-2.54,1.51-5.73-4-4.92a169.09,169.09,0,0,1-39.79.73c-3.94-.38-4,1.61-4.63,3.82-.21.7-.52,2.29-.74,3.28a37.08,37.08,0,0,1-4.08,10.9c-7.67,13.1-20.11,20.37-32.61,27-7.3,3.85-14.71,7.44-21.49,12.14a88.35,88.35,0,0,0-22.41,21.9c-6,8.55-10,18.11-13.22,27.94-5.69,17.12-8.53,34.87-10.79,52.71-1.22,9.66-2.07,19.34-4.66,28.8-3.22,11.77-9.44,21.45-19.32,28.47A107.34,107.34,0,0,1,216,393.89c-5.94,1.55-11.9,3.09-17.77,4.88-5.24,1.6-6.35,3.37-6.4,8.89,0,.75,0,1.5.06,2.25.37,7.19.72,14.39,1.16,21.57.12,1.9.52,3.78.77,5.54m426.64-30.86c5.79-.81,10.9-2.05,15.19-5.82a137.71,137.71,0,0,1,11.88-9.57c2.39-1.66,5.38-2.45,8.14-3.65-.32-3.29,0-5.41,2.75-7.47,3-2.29,6.38-1.25,9.34-.46.27-.64.46-1.17.72-1.67,2.7-5,7-5.82,10.81-1.55,2.7,3,4.79,6.52,7.51,10.31a22.59,22.59,0,0,1,0-3c.34-2.35.39-4.84,1.25-7,1.86-4.68,6.39-5.91,10.15-2.54a20,20,0,0,1,4.85,7.35,26.45,26.45,0,0,1,1.47,8.38c.33,6.3.55,12.61.5,18.91-.09,11.62-5.46,20.08-16,25.07-6.34,3-12.63,6.39-19.81,7a101.29,101.29,0,0,1-12.56.36c-5.83-.24-11.65-1.05-17.48-1.28s-11.69,0-17.57,0c-1.08,2.29-2.22,4.68-3.53,7.46,4.28,4.65,8.19,10.05,10,16.83,35.65-.45,119.16-.9,154.59-1.35,7.08.61,3.49,5.07-3.25,4.84-9.6,0-67.26-.17-76.86-.31-3.87-.06-7.74-.32-11.61-.29q-29.7.3-59.4.71h-2c.31,3.05.75,5.94.87,8.85.37,8.61-2,16.57-5.8,24.24-4.13,8.31-9.93,15.32-16.32,21.93-7.85,8.11-16.09,15.77-25.72,21.71-4.82,3-10,5.41-15.09,8.14,2.55,2.35,5.29,4.56,7.67,7.1A25.69,25.69,0,0,1,581.91,583a46.63,46.63,0,0,1-4.62,13.06c-4.11,7.45-11.38,10.73-19.31,12.72-9.87,2.48-19.69,1.23-29.44-.59-10-1.88-20-4.17-30-6.11-5.88-1.14-11.82-2-17.73-2.94-10.19-1.7-20.35-3.54-30.56-5.11s-20.46-2.87-30.69-4.29l-6.1-.8c-.86,2-1.64,4.11-2.6,6.09-1.91,4-3.81,4.87-8,3.4s-8.07-3.2-12.13-4.76c-8.53-3.27-17.1-6.47-25.64-9.75a7.54,7.54,0,0,0-5.68,0c-8.12,3.09-16.36,5.89-24.38,9.23-10.57,4.39-21.21,8.33-32.66,9.68-7.06.83-13.7,0-19.84-3.93a16.9,16.9,0,0,1-6.37-7.37c-4-8.64-4.78-17.18-.16-25.51a20.82,20.82,0,0,1,4.67-6.33c-7.46-2.36-14.77-4.53-21.89-6.8a159.34,159.34,0,0,1-50-26.12,83.08,83.08,0,0,1-21.2-23.7,58.53,58.53,0,0,1-8.3-29.51v-4c-3,.17-5.63.31-8.26.48-8.37.51-16.74,1.3-25.12,1.5-24.44.59-74.48.94-98.92,1.41-12,.23-9,.55-21,.71-1.7,0-4.65,1-4.54-1.91.08-2.3,2.7-1.56,4.44-1.61,12.12-.3,9.33-.64,21.45-.95,6.31-.16,38.21-.26,44.51-.4,16.8-.37,33.61-.58,50.4-1.17,10.6-.36,21.17-1.29,31.75-2l5.8-.35c2.08-8.74,5.2-17.1,12-23.36l-4-8.19c-11.25.61-22.92.94-34.54,2-13.51,1.19-25.48-2.89-36.69-9.78-7.93-4.87-11.6-12.52-11.8-21.58-.17-7.78.36-15.6.82-23.38a17.08,17.08,0,0,1,4.75-11.41c4.61-4.64,10.31-3.31,12,3a58.46,58.46,0,0,1,1.09,9.15,50.19,50.19,0,0,1,2.57-6.2,15.51,15.51,0,0,1,4-5.68c3.4-3.1,8.29-2.25,10.76,1.64.47.74,1,2.64,1.36,3.41,8.46-4.23,11.6,1.5,11.41,7.25,6,1.09,10.89,4.35,15.28,8.57,5.61,5.4,11.75,9.84,20.26,10.29,2-4.19,6-5.72,10.22-6.91,8.51-2.38,17.26-4.14,25.48-7.29a133.41,133.41,0,0,0,23.26-11.65c10.38-6.56,16-16.75,18.83-28.61,2.36-9.84,2.83-19.87,3.65-29.89.47-5.94,1.75-11.81,2.66-17.71A188,188,0,0,1,284.79,257a108.77,108.77,0,0,1,11.87-22.1c4.18-5.9,9.72-10.22,15.28-14.43a190.5,190.5,0,0,1,30.41-19.11c6-3,11.47-7.05,17.1-10.75,2.31-1.51,8.65-7.37,10.22-9.84,3.16-5,4.29-9,3.6-14.26-1-7.89-7.35-17.11-11.85-27.47-5.5-12.64-8.66-19.6-12.19-32.91-4.83-18.15-5.22-36.49.1-54.6C354.08,35.37,363,22,377.24,12.46c7.5-5,15.86-6.88,24.73-6.64,9.51.26,18.85,1.95,27.4,6.07,15,7.23,25.17,18.72,29.8,35.14,3.07,10.86,2.73,21.64,1.28,32.52-1.87,14.06-6.4,27.35-12.17,40.29-4.09,9.16-9.17,20.22-12.46,29.69-2.05,5.9-3.1,6.77-3.1,16,0,9,2.53,13.29,6.42,18.57,6,8.2,13.82,14.39,22.5,19.68,8.44,5.13,16.6,10.75,24.77,16.31,10.69,7.29,19,17,26.3,27.46a150.87,150.87,0,0,1,17.14,31,107.35,107.35,0,0,1,6.6,25.61c1.59,12.19,2.58,24.46,4.4,36.61a103.36,103.36,0,0,0,4.94,19.57c3.82,10.6,11.37,18.07,21.34,23.37,6.77,3.59,13.51,7.22,20.85,9.44,6.6,2,13.34,3.54,20,5.35,2,.54,4,1.3,5.95,2a10,10,0,0,1,6.5,5.7"/></g><g id="acfef88c-1ca4-436f-967b-bafdf30a8d0d" data-name="Layer 3"><path class="a8d7fe28-12ff-476e-9dc7-bafba24b57b2" d="M758.81,100.51s-44.9,9.38-75.46,19.26-41.27,24.64-81.75,25.51c-28.71.62-57.83,19.28-55.48,49.84s23.5,36.67,49.83,39,24.45,9.88,56.42,22.57c31.16,12.37,42.22,10.9,61,10,1.05-.06,5.45.13,6.51.19,6.74.38,11.92,2,26.45,6.1,18.39,5.17,23.92,4.64,23.92,4.64a1.38,1.38,0,0,0,1.72-1.11c.21-1.43-2-2.75-3.33-2.75a138.52,138.52,0,0,1-29.82-6.93c-17.18-6.45-34.58-4.06-46.29-4.21-11.23-.15-26.39-5.06-30.53-6.77s-18.57-7.19-22.43-9.47-17.67-12-31.14-14.87c-10.17-2.13-23.09-3.2-29.2-4.68-5.09-1.24-14.66-3.35-19.72-9.13s-8.86-14.44-9.14-21-1-17.41,6.61-26.25,14.93-13.66,20.23-15.95a61.86,61.86,0,0,1,21.86-4.93c9.91-.5,42.51-3.42,56.43-12.51,28.5-18.61,98-29.17,104.52-31.81C765.7,102.93,762.73,99.15,758.81,100.51Z"/></g></svg>