<svg xmlns="http://www.w3.org/2000/svg" viewBox="0 0 415.87 681.12"><defs><style>.e38b7cf6-4947-4591-ba19-a3858d4c8712{fill:#161c4d;}.b54d85a5-5b26-4031-87f4-ae60ca6b5a2d{fill:#bbae80;}.e0297803-9525-457b-a868-292724688fb6{fill:#e9e1d5;}.b8ebafc0-9f7d-421b-a7d8-58f333bd5a50,.f383f41b-996a-411b-8832-6a2207ef1c23{fill:none;stroke-miterlimit:10;}.f383f41b-996a-411b-8832-6a2207ef1c23{stroke:#161c4d;stroke-width:2px;}.af812681-d0c1-4374-999b-a159f882f4dc{fill:#ced2e2;}.b8ebafc0-9f7d-421b-a7d8-58f333bd5a50{stroke:#221f20;stroke-width:0.05px;}</style></defs><g id="ac894fe7-98a9-4706-a362-d1d45ea79b7c" data-name="Layer 2"><path class="e38b7cf6-4947-4591-ba19-a3858d4c8712" d="M131.79,21s15.55-5.7,58.05-4.66S292.48,21,292.48,21l18.15,13,7.26,22.29-10,89.11-20.94.19,2.54-64.34L292,47.43,280,41.1,145.26,37.58l-14,13-29.08,257-23.11,7.76L107.42,57.8S111.57,26.7,131.79,21"/><path class="e38b7cf6-4947-4591-ba19-a3858d4c8712" d="M75,384.12v29.79s-1.84,13.2,5.53,19,27.32,8.59,39.91,9.21,112.38,7.06,112.38,7.06,35,.31,41.15-28.56,5.53-44.21,5.53-44.21l-22.73-3.38.22,11.12-4.82,16.21-1.23,12.28-7.68,6.45-8.56,5.36-18.5.25-67.82-6.23-46.67-4.3L97.1,401l2.76-14.43L75,384.12"/></g><g id="a1392d9b-a4bf-435c-aa0a-7ad63af739e7" data-name="Layer 1"><path class="b54d85a5-5b26-4031-87f4-ae60ca6b5a2d" d="M229.59,664.52l0-88.76s3.13-7.61-13.25-7.4L19.17,570.94s-6-7.49-7,24.34-2.15,67-2.15,67l219.56,2.25"/><path class="e0297803-9525-457b-a868-292724688fb6" d="M183.94,289.19c9.22-.65,19.55-2.84,28.46-9.06,4.11-2.87,7.57-6.77,11-10.51,1.77-1.93,1.35-4.52-.27-5.25-2.08-1-2.89.88-3.93,2-2.07,2.3-3.85,4.92-6.18,6.91-14.46,12.37-36.57,13.81-53.5,5.18a39.71,39.71,0,0,1-13.95-11.22c-1-1.31-2.05-3-3.9-1.77-2.34,1.55-.71,3.33.44,4.59,3.05,3.34,6,6.91,9.53,9.66,9,7,19.69,9.05,32.31,9.43"/><path class="f383f41b-996a-411b-8832-6a2207ef1c23" d="M307.88,145.35l-20.94.19c.26-2.16.58-4.28.77-6.41,1.41-15.63,2.74-31.28,4.2-46.9.64-6.92,1.63-13.79,2.24-20.7.42-4.72.55-9.46.63-14.2.14-7.4-6-14.5-14.82-16.23-15-2.94-30.15-2.29-45.24-3q-18.89-.87-37.78-1.46c-11.51-.37-23-.56-34.54-.83a82.69,82.69,0,0,0-8.76-.14c-12.88,1.08-21.35,9.23-24.46,21.64a153.55,153.55,0,0,0-3.25,19.43c-1.77,15.23-3.3,30.49-4.87,45.74-1.25,12.18-2.36,24.37-3.61,36.54q-3.11,30-6.28,59.92c-1.16,11.08-2.28,22.16-3.46,33.23-1.67,15.61-3.4,31.22-5,46.84-.29,2.72-.31,5.46-.48,8.57l-18.52,6.16c.52-6.53.89-12.5,1.48-18.44q2.46-24.81,5.08-49.62c1.1-10.35,2.49-20.66,3.54-31,1.5-14.9,2.76-29.82,4.22-44.73,1.17-11.81,2.51-23.6,3.71-35.41,1.17-11.43,2-22.9,3.45-34.31,1.92-15.57,1.47-31.39,5-46.8a58.93,58.93,0,0,1,8.65-20.63A32.35,32.35,0,0,1,143.1,18.54c8.17-.76,16.4-1.2,24.61-1.26,13.35-.1,26.7.23,40,.4,16.43.21,32.87-.68,49.26,1.55,8.49,1.15,17.18.88,25.6,2.31,6,1,11.9,3.49,17.58,5.92s9.38,7.5,11.65,13.26c3.73,9.48,5.38,19.18,3.31,29.44-1.22,6.06-1.6,12.3-2.2,18.48-1.48,15.26-2.87,30.53-4.26,45.81-.33,3.6-.54,7.21-.81,10.9"/><path class="af812681-d0c1-4374-999b-a159f882f4dc" d="M188.57,375.29a28.41,28.41,0,0,1-20.67-7.52c-9.57-8.42-10.09-20.42-3.88-30.23,7.13-11.26,18.06-15.94,31.13-15.87,5.15,0,10,1.53,14.78,3.51,10.06,4.2,17.62,17.45,10.39,31.33-6.61,12.7-16.93,19.14-31.75,18.78"/><path class="af812681-d0c1-4374-999b-a159f882f4dc" d="M245.85,348.31c-.06-5.4,6.41-15,15.59-19.93,5.13-2.78,10.23-5.56,16.18-6.39,10.74-1.48,20.88,3.91,23.82,13.14,2.06,6.45.66,12.68-2.52,18.39-6.43,11.59-15.55,19.05-29.65,18.89-13.35-.15-23.15-4.72-23.58-23.14"/><path class="af812681-d0c1-4374-999b-a159f882f4dc" d="M262.24,301.27c-11.38-.37-22.29-6.77-20.6-24.16.64-6.6,2.63-12.11,8.1-16,5.86-4.12,12.33-6.42,19.61-5.14,10.94,1.93,16.65,10.4,15.83,21.4-.63,8.31-5.06,15-11.72,19.6-3.07,2.13-5.34,3.69-9.17,4.73"/><path class="af812681-d0c1-4374-999b-a159f882f4dc" d="M314.69,377.39c10.83,0,17.88,9.95,13.79,21.34-4,11.07-12.24,17.51-23.45,20-9.85,2.18-20.22-8.55-18.85-18.84.9-6.81,4.5-11.76,9.79-15.75a31.15,31.15,0,0,1,18.72-6.74"/><path class="af812681-d0c1-4374-999b-a159f882f4dc" d="M269.78,174.52c12.9.19,19.73,9,16.65,19.64s-10.6,17.56-21.4,19.55c-8.88,1.63-23.75-6.77-20.16-19.47,2.36-8.37,8-14.25,16.07-17.5,3.31-1.34,7-1.77,8.84-2.22"/><path class="e38b7cf6-4947-4591-ba19-a3858d4c8712" d="M261.28,314.13c.3-3,.6-6,.88-9l15.21-3L262.19,315l-.91-.85"/><path class="e38b7cf6-4947-4591-ba19-a3858d4c8712" d="M183.94,289.19c-12.62-.38-23.3-2.46-32.31-9.43-3.55-2.75-6.48-6.32-9.53-9.66-1.15-1.26-2.78-3-.43-4.59,1.84-1.22,2.91.46,3.9,1.77a39.53,39.53,0,0,0,14,11.22c16.91,8.62,39,7.19,53.49-5.17,2.33-2,4.11-4.62,6.18-6.92,1.05-1.16,1.85-3,3.94-2,1.61.73,2,3.31.26,5.25-3.42,3.74-6.88,7.64-11,10.52-8.91,6.21-19.24,8.4-28.46,9.05"/><path class="b8ebafc0-9f7d-421b-a7d8-58f333bd5a50" d="M183.94,289.19c-12.62-.38-23.3-2.46-32.31-9.43-3.55-2.75-6.48-6.32-9.53-9.66-1.15-1.26-2.78-3-.43-4.59,1.84-1.22,2.91.46,3.9,1.77a39.53,39.53,0,0,0,14,11.22c16.91,8.62,39,7.19,53.49-5.17,2.33-2,4.11-4.62,6.18-6.92,1.05-1.16,1.85-3,3.94-2,1.61.73,2,3.31.26,5.25-3.42,3.74-6.88,7.64-11,10.52C203.49,286.35,193.16,288.54,183.94,289.19Z"/><path class="e38b7cf6-4947-4591-ba19-a3858d4c8712" d="M392.24,362.88c-14.23-12.74-31.33-15.78-49.68-12.47-6.09,1.09-12,3.2-18,4.85,5.63-4.83,11.41-9.26,17.3-13.54,9.47-6.89,18.79-13.9,26.83-22.55a56.62,56.62,0,0,0,14.7-29.48c2.9-16.92-4.24-28.26-23.11-31.89-9.5-1.82-18,1.2-26.61,4.3-.84.3-1.75.45-3.47.87,2-3.06,3.54-5.31,5-7.61,5.71-9,10.16-18.56,11.39-29.34a28.83,28.83,0,0,0-2.24-15.54C340,201,331.69,197.9,321.87,197.87c-2.48,0-4.95.25-8.46.43l2.22-2.81c4.52-5.79,8.52-11.82,10.44-19.07,3.16-12-1.08-22.31-11.87-28.41-.76-.43-1.48-.93-2.21-1.4.14-1.52.24-2.79.38-4.05,1.37-13.63,2.71-27.25,4.13-40.87.95-9.09,1.71-18.2,3.11-27.22,1.2-7.63,1.72-15.24.49-22.82-3.39-20.83-13.32-29.77-31.3-33.19-14.79-2.82-30.07-3.29-45.18-4.11-14-.76-28.13-.73-42.2-.84q-23.59-.19-47.21,0c-7.5.07-14.9.85-22,3.83-13.3,5.57-20.09,16.33-24.14,29.44-2.77,9-3.63,18.21-4.56,27.49-2,20.51-4.51,41-6.66,61.49-1.9,18.16-3.55,36.35-5.41,54.51-1.85,18-3.88,36-5.74,53.93q-3.1,30-6,59.93c-.37,3.77-.42,7.56-.61,11.19-8,5.07-16,9.48-23.33,14.88A103.19,103.19,0,0,0,19.68,377.5c-4,10.64-5.93,21.69-6.85,33.1-1,12.32-1.1,24.57,1.26,36.6a303.45,303.45,0,0,0,16.53,54.38c7.87,19.65,16.23,39.1,24.35,58.65.88,2.13,1.56,4.33,2.23,6.22-6.82.06-13.2.44-19.54.08-6.62-.36-13.73-1-19.88,1.65-3.12,1.36-5.63,4.93-6.37,8.12a73,73,0,0,0-1,7.58c-.17,1.44-.21,2.91-.41,4.35-.52,3.77-.09,7.28-.3,11.07-.53,9.3-.77,18.62-1.12,27.94-.35,9.5-.71,19-1,28.49-.08,2.53-.13,5.15,2.46,6.54,2.53-.29,3.13-1.66,3.21-3.8C13.77,644,14.45,629.62,15,615.2c.45-11.51.78-23,1.19-34.53.18-4.67,2.09-7.16,6.54-8.21a20.57,20.57,0,0,1,4.91-.34q40.6.14,81.2.33c25.79.14,51.58.36,77.38.44,13,0,25.91-.08,38.87-.26,2.57,0,3.71,1.17,4.13,3.38a16.41,16.41,0,0,1,0,3.29q-.42,17.7-.86,35.42c-.33,12.79-.72,25.58-1,38.38a85.24,85.24,0,0,0,.22,9.32,3.25,3.25,0,0,0,2,2.1c.52.19,1.87-.61,2.11-1.25A15.8,15.8,0,0,0,233,658c.34-14.26.5-28.51.8-42.76.21-10,.61-20.09.75-30.14a45.84,45.84,0,0,0-.83-9.78c-1.14-5.56-3.73-7.68-9.49-8-4.92-.25-9.87-.18-14.81-.19-4.34,0-8.69.06-13.63.11-.19-9.87-2.74-19.25-1.9-29,3.85-.3,7.16-.34,10.38-.86A300.5,300.5,0,0,0,254,524.63,321.31,321.31,0,0,0,313.56,497c28.42-17,54.41-36.91,74-64.14,8.2-11.4,14.53-23.69,16.34-37.82C405.52,382.42,401.67,371.32,392.24,362.88ZM341,264.55c9.22-3.81,18.46-4,27.39,1.18A21.12,21.12,0,0,1,378.91,287a52.57,52.57,0,0,1-17,32.19c-18.05,16.48-38.39,29.74-58.69,43.09-1.17.76-2.48,1.3-3.72,1.95l-.79-.81c.7-1,1.37-2.08,2.11-3.09a33.25,33.25,0,0,0,6.4-15c2.42-15.91-8.17-28.06-24.27-28.19a38,38,0,0,0-15.39,3.34c-1.64.69-3.26,1.42-5.9,2.57,3.95-5.68,8.52-9.2,13-12.68,10.22-8,20.7-15.65,31.07-23.46,3.94-3,8.15-5.66,11.73-9C324.24,271.55,332.63,268,341,264.55ZM314.69,377.39c10.83,0,17.88,9.95,13.78,21.34-4,11.07-12.23,17.51-23.44,20-9.85,2.18-20.22-8.55-18.86-18.84.91-6.81,4.51-11.76,9.8-15.75A31.21,31.21,0,0,1,314.69,377.39ZM111.26,418.61c18.23.93,36.45,2.07,54.66,3.24,8,.5,16,1.42,24,1.86,8.75.49,17.54.37,26.27,1,6.21.46,12.32.95,18.5-.25,9.09-1.78,15.67-6.14,18.71-15.47,2.65-8.14,2.85-16.49,3.58-24.83.24-2.71.27-5.44.4-8.43l20.09,2.31c-.13,1.36-.22,3.28-.5,5.17-1.35,9.58-2.27,19.25-4.25,28.69-2.16,10.3-6.12,19.9-14.77,26.82-9.31,7.44-20.22,8.92-31.54,8.26-10.74-.63-21.42-2-32.15-2.71-17.84-1.14-35.7-1.93-53.56-3q-20.43-1.2-40.85-2.73a29.25,29.25,0,0,1-7.41-1.84c-9.75-3.39-14.76-10.56-15.24-20.64-.37-7.85-.2-15.74.1-23.6.22-5.8,2-7.11,7.53-6.28,3.92.59,7.78,1.54,11.67,2.34,0,5.21.56,10,0,14.65C95.45,412.74,104.36,418.26,111.26,418.61ZM219,368.23c8.83-9.49,11.76-20.52,8-32.94-2.24-7.37-7-13.24-13.14-17.79-12-8.88-25.43-14.17-40.44-15.07-8.56-.51-17.11-1.49-25.66-1.45a155.44,155.44,0,0,0-35.28,4c-1.59.38-3.22.59-5.5,1,6.2-59.54,12.36-118.78,18.61-178.73a59.82,59.82,0,0,0,30,10.52,64.13,64.13,0,0,0,32.08-5c-.94,2.27-2.83,4.09-3.6,5.34-9.27,14.9-17,26.71-26.5,41.45a197.67,197.67,0,0,0-20.12,40.25c-2,5.69-3.07,13.51-2.1,19.35,1.68,10.16,11.95,17.89,22.2,18.54a67.32,67.32,0,0,0,25.92-3.46c14.69-5,28-12.65,40.41-21.76,2.16-1.58,5.76-3.84,5.3-6.36-.5-2.71-3.6-2-4.94-1l-9.12,6.8c-10.81-7.47-21.73-2.72-23.88,10.24-.44,2.58-1.56,3.9-3.85,4.66-3.62,1.22-7.22,2.51-11,3.84-2.84-5.34-6.63-8.85-12.88-8.81s-9.27,4.41-12.55,8.48c-6.46-2.12-10-7.31-10.61-15.09a38.6,38.6,0,0,1,3-17.64c6.31-15.52,15-29.65,24.43-43.4,6.73-9.78,12.41-20.28,18.94-30.2,7.88-12,10.19-25.21,10-39.19a38.68,38.68,0,0,0-9.5-25.6c-5-5.94-11.56-8.76-18.7-10.62-12.79-3.34-23.71,1.11-33.8,8.59-.83.62-2.43.83-2.57,2,1.42-11.76-.2-28.12,9.74-35.44,3.68-2.72,6.78-2.86,10.56-3.44,5.7-.85,11.6-.6,17.4-.45,10.95.26,21.89.82,32.84,1.19q26.3.88,52.59,1.66c4,.12,7.43.17,11.44.44,9.44.62,15.5-.35,19.79,4.5,3.61,4.08,4.39,7.46,4,15.73s-.76,9.6-1.07,17.8c-.07,1.92-.34,3.84-.53,5.76l-1.58,1a20.43,20.43,0,0,0-1.5-3c-10-14-28.13-18.16-44.3-13.5-13.75,4-24.17,12.61-32.11,24.39-.86,1.28-1.83,2.69-.21,3.8,1.89,1.31,2.91-.3,3.84-1.73a51.71,51.71,0,0,1,24.09-20c13.58-5.52,26.76-5.19,39,3.69A27.19,27.19,0,0,1,286.25,94.3c1.64,4.72.64,10-1.06,15.19-3.24-1.33-6.26-2.49-9.21-3.8-20.42-9.12-47-2.65-62.4,15.09-1.07,1.24-2.17,2.47-3.27,3.69-3.72,4.1-3.6,5.86,1.69,8,5.05,2,10.37,3.84,15.71,4.43a92,92,0,0,0,27.32-.52c9.51-1.78,18.22-5.27,25.76-11.46a11.71,11.71,0,0,1,1.81-1.22c.29-.16,1.48-1.31,1.4-.16-.68,8-1.34,15.92-2,24A78.85,78.85,0,0,0,257,162c-6.82,6-12.55,12.91-15.86,21.4-3.5,9-3.49,17.87,2.62,26,4.1,5.46,10,7.8,16.46,8.83,3.94.63,8,.38,13.07.56-1.84,1.83-3.19,3.32-4.69,4.66-10.68,9.64-20,20.38-26.36,33.38-3.74,7.7-6.7,15.64-6.22,24.66.67,12.55,6.5,20,18.9,22.59l3.06.66c-.17,4.25-.12,8.42-.61,12.51a10.1,10.1,0,0,1-2.47,4.65A72.77,72.77,0,0,0,243.74,340c-4.71,11.21-.38,26.89,10.24,33.27-.38,3.94-.69,8.11-1.21,12.25-1,7.95-1.13,16-4,23.71a15.74,15.74,0,0,1-10.57,10.24,27.68,27.68,0,0,1-8.59,1.55c-13-.3-25.95-.83-38.91-1.4-6.74-.3-13.48-.86-20.21-1.3q-21.33-1.4-42.65-2.81c-5.46-.37-11-.64-16.37-1.29-7.67-.92-9.9-3.35-10-11-.06-4.16.51-8.33.83-13,2.88.48,5.5.86,8.1,1.36a170,170,0,0,0,33.79,3.05c10.44-.12,20.79-.46,30.94-3C191.74,387.58,207.05,381.05,219,368.23Zm-30.42,7.06a28.41,28.41,0,0,1-20.67-7.52c-9.58-8.42-10.08-20.42-3.88-30.24,7.12-11.25,18.06-15.93,31.13-15.86,5.15,0,10,1.53,14.77,3.51,10.07,4.2,17.63,17.45,10.4,31.33C213.71,369.21,203.39,375.65,188.57,375.29ZM127.85,107.38c.61-6.71,1.23-12,2-18.27A5.94,5.94,0,0,1,131.74,86C147,71.62,162.39,69.06,179.57,78.5a23.34,23.34,0,0,1,8.66,8.84c6.16,11.16,5.71,21,2.48,33.75C173.54,97.81,152.62,97,127.85,107.38Zm61.33,19.69c-5,2.89-9.82,5-15,5.25,1.79-5.57,3.5-10.93,5.33-16.6C183.42,118.42,186.51,122.29,189.18,127.07ZM132.66,111c5.35-2,10.51-4.52,17.14-3.87-6.39,7-7.85,14.8-5,23.76-7.54-1.19-12.81-5.67-18.46-9C125.32,116.28,127.54,112.93,132.66,111Zm131.8,18.73c5.57-6.31,5.55-13.54,3.1-22.22l17.95,7.63c-5.37,6.94-11.88,11-19.38,14-.55.21-1.1.43-1.67.63h0Zm-24.74,4.18c-10,.29-18.08-2.53-26.07-5.76a41.14,41.14,0,0,1,19.64-17C230.3,120.23,232.09,127.38,239.72,133.92Zm5.15,60.32c2.36-8.37,8-14.25,16.07-17.49,3.31-1.34,7-1.78,8.84-2.23,12.9.19,19.73,9,16.65,19.64s-10.6,17.57-21.4,19.55C256.15,215.35,241.28,206.94,244.87,194.24ZM273.47,297a16.89,16.89,0,0,1-11.35,3.3c-11.37-.37-22.17-5.81-20.47-23.21.63-6.6,2.62-12.11,8.09-16,5.86-4.12,12.33-6.42,19.61-5.14,10.94,1.93,16.65,10.4,15.83,21.4C284.55,285.72,280.12,292.41,273.47,297Zm-4.2,75.39c-13.35-.15-23.74-10.33-21.59-26,.74-5.35,4.58-13.09,13.76-18,5.13-2.78,10.23-5.56,16.18-6.39,10.75-1.48,20.88,3.91,23.82,13.14,2.05,6.45.65,12.68-2.52,18.39C292.49,365.11,283.37,372.57,269.27,372.41Zm57-169a16.67,16.67,0,0,1,15.07,16.72c.21,10.15-3.08,19.29-8.18,28a115.85,115.85,0,0,1-44.65,43.29c-.62.35-1.32.56-2.94,1.24,6.19-12.71,8.18-24.43-1.67-35-7.18-7.7-19.75-9.67-33.89-2.33-.31-2.25.89-3.82,1.89-5.33a119.08,119.08,0,0,1,30.69-32.43,48.53,48.53,0,0,1,6.23-3.38c3.4-1.74,7-3.2,10.22-5.18A41.08,41.08,0,0,1,326.23,203.45ZM316,155.72c6,5.09,6.52,11.85,4.87,19-1.57,6.73-5.1,12.43-9.49,17.66-7,8.32-16.26,13.41-25.8,18.09a22.89,22.89,0,0,1-3.93,1.09c2.53-3.44,4.87-6.39,7-9.52a22.11,22.11,0,0,0,3.4-16.69c-2.26-11.94-13.21-18.73-25.73-15.89-4.9,1.1-9.5,3.54-15.26,5.75,13.18-16,28.91-25.34,49.4-25.42A23.61,23.61,0,0,1,316,155.72ZM85.15,295.3q2.46-24.81,5.08-49.62c1.1-10.34,2.49-20.66,3.54-31,1.5-14.9,2.76-29.82,4.22-44.73,1.17-11.81,2.51-23.6,3.71-35.41,1.17-11.43,2-22.9,3.45-34.31,1.92-15.57,1.47-31.39,5-46.8a58.93,58.93,0,0,1,8.65-20.63A32.35,32.35,0,0,1,143.1,18.54c8.17-.76,16.4-1.2,24.61-1.26,13.35-.1,26.7.23,40,.4,16.43.21,32.87-.68,49.26,1.55,8.49,1.15,17.18.88,25.6,2.31,6,1,11.9,3.49,17.58,5.92s9.38,7.5,11.65,13.26c3.73,9.48,5.38,19.18,3.31,29.44-1.22,6.06-1.6,12.3-2.2,18.48-1.48,15.26-2.87,30.53-4.26,45.81-.33,3.6-.54,7.21-.81,10.9l-20.94.19c.26-2.16.58-4.28.77-6.41,1.41-15.63,2.74-31.28,4.2-46.9.64-6.92,1.63-13.79,2.24-20.7.42-4.72.55-9.46.63-14.2.14-7.4-6-14.5-14.83-16.23-15-2.94-30.14-2.29-45.23-3q-18.89-.88-37.78-1.47c-11.51-.37-23-.56-34.54-.83a82.69,82.69,0,0,0-8.76-.14c-12.88,1.08-21.35,9.22-24.46,21.64a153.55,153.55,0,0,0-3.25,19.43c-1.77,15.23-3.3,30.49-4.87,45.74-1.25,12.18-2.36,24.37-3.61,36.54q-3.11,30-6.28,59.92c-1.16,11.08-2.28,22.16-3.46,33.23-1.67,15.61-3.4,31.22-5,46.84-.28,2.72-.3,5.46-.47,8.57l-18.52,6.16C84.19,307.21,84.56,301.24,85.15,295.3ZM397.36,404.12c-4.24,14.75-12.68,27.07-22.77,38.29-24.88,27.64-55.44,47.38-88.67,63.35a290.5,290.5,0,0,1-53.84,20c-12.52,3.2-25.34,5.29-38.05,7.65-4.82.89-5.86,1.82-5.43,6.74q1,11.46,2,22.93c.1,1.24,0,2.51.06,4.66-43,.92-85.32-.45-127.49-.55C54,544.55,44.7,522.35,36,499.93c-4.74-12.24-9-24.7-12.57-37.34C16.73,438.48,15.11,414,21,389.44c4.38-18.41,14.35-33.58,28-46.23,23.83-22.11,52.57-33,84.69-35.95a207.65,207.65,0,0,1,38.3-.15,73.12,73.12,0,0,1,29.57,9.22c.27.15.38.6.58.95-13.86-2-26.3,1.22-36.44,11-9,8.61-12.69,19.13-8.65,31.44A27.66,27.66,0,0,0,174,377.26c4.87,1.9,10.14,2.76,15.75,4.22-3.07,1.18-6,2.35-9,3.41-15.49,5.51-31.67,6.06-47.68,4.81-12.67-1-25.14-4.35-37.72-6.53-5.19-.9-10.28-2.51-15.73-1.51-4.38.81-5.21,1-6,5.48a51.39,51.39,0,0,0-1,10.33c.15,7.3.36,14.62,1.15,21.86,1.22,11.25,8,18.14,18.53,21.36a53.26,53.26,0,0,0,11.26,2.11c20.58,1.53,41.17,2.85,61.75,4.28,21.14,1.47,42.25,3.32,63.4,4.37,14.61.72,27.93-2.94,37.61-15.11,6-7.51,9.21-16.2,10.71-25.5,1.64-10.08,3-20.23,4-30.39.33-3.15,1.36-4.44,4.44-5,3.53-.66,6.94-2,10.93-3.22-3.53,4.32-7,8-9.76,12.13-4.36,6.66-7.27,13.72-5.59,22.19a20.69,20.69,0,0,0,10.49,14.56A43,43,0,0,0,312,426.64c17.43.73,33.61-4,49-11.84,1.41-.71,4-1.76,4.36-4.54s-3.89-1.18-6.3-.14c-6.69,2.9-13.29,6.19-20.26,8.25-6.58,1.93-13.57,2.57-20.4,3.6-1.36.21-2.85-.39-4.93-.73,3-1.92,5.46-3.43,7.84-5.13,7.82-5.58,12.58-12.87,13.41-22.75.86-10.07-6.14-19.27-16.4-20.25-4.44-.43-8.95,0-13.73,0,2.38-1.74,4.74-3.68,7.3-5.29,14.32-9,29.68-15.15,46.86-14.73,15.29.38,27.67,7.44,35.8,20.19C400.49,382.65,400.42,393.5,397.36,404.12Z"/></g></svg>