<svg xmlns="http://www.w3.org/2000/svg" viewBox="0 0 851.34 560.29"><defs><style>.bdcc86bf-ff02-43be-8afd-5b7590d6d27a{fill:#151a4d;}.b8ea7c31-ee42-46fe-a6f2-5dd14918ab5e{fill:#bbae80;}</style></defs><g id="e500844a-60cf-417c-ab71-eec0fa1ed473" data-name="Layer 2"><polygon class="bdcc86bf-ff02-43be-8afd-5b7590d6d27a" points="297.38 142.28 306.53 196.68 360.1 189.74 363.15 178.36 373.7 155.05 359.27 157.55 346.22 159.49 330.4 155.6 319.58 147 314.31 137.84 297.38 142.28"/><path class="bdcc86bf-ff02-43be-8afd-5b7590d6d27a" d="M417,122l-14.43,15,26.37-5.83s44.27-13.6,127.94,26.64l196.64-31.08L746,71.51,459,116.75Z"/></g><g id="a898107e-1b9a-42f9-8e2e-6955554d606f" data-name="Layer 1"><polygon class="b8ea7c31-ee42-46fe-a6f2-5dd14918ab5e" points="549.37 520.12 555.65 534.84 836.23 534.84 747.15 382.09 549.37 520.12"/><path class="bdcc86bf-ff02-43be-8afd-5b7590d6d27a" d="M326.39,197.6C337.27,215.74,338.1,233,325,250.32c10.28-1.11,18.14-5.56,24-13.35,9.92-13.15,10.79-27.89,7.42-43.81l-30,4.44m35,156.92c2.75,1.9,5.57,4.17,8.68,5.91,10.08,5.66,20.66,9.84,32.53,7.86,7-1.17,7.6-1.24,6.83-9.43a7.13,7.13,0,0,0-.29-1.1c-2.93-11.85-11.49-17.77-22.36-21.25-5.14-1.65-10.32-.89-15.11.87-7.54,2.76-10.3,9-10.28,17.14m-3.64-122.34-3.32,5.4a37.75,37.75,0,0,1-44.67,16.11,51.92,51.92,0,0,1-18.91-12.38,35.18,35.18,0,0,0-3-2.37c.25,13.2,5,24.22,11.36,35.07a25.37,25.37,0,0,0,2.7-2.46c9.78-12.1,22.55-15.53,37.32-12.58,14.35,2.86,26.66,15.49,26.12,30.35a20,20,0,0,0,.36,2.73c6.85-6.31,9.2-13.72,9.73-21.84.77-11.61-3.48-21.65-10.3-30.73-2-2.66-3.77-5.67-7.35-7.3m-54.6,47.61c3.53,7.41,9.15,12.51,15.87,16.25,11.23,6.26,23,8.55,35.57,3.85a6.55,6.55,0,0,0,4.62-5.85c.6-5.75.44-11.32-3.06-16.41-6.87-10-16.55-14.3-28.3-13.87-11.32.42-19.82,5.65-24.7,16M279.38,198a18,18,0,0,0-.31,2c-.64,11.77,3.7,22,10.16,31.41a45.94,45.94,0,0,0,21.65,17,7.51,7.51,0,0,0,6.5-.3,15.56,15.56,0,0,0,7.59-7.36c4.44-8.74,4.83-18,2.63-27.17-1-4.11-3.39-8-5.77-11.59-1.1-1.66-3.88-3.55-5.54-3.25-8.22,1.47-16.24-.39-24.34-.7-4.1-.15-8.21,0-12.57,0m30.53-2.39c4.89-.69,9.36-1.3,13.83-2q15.76-2.31,31.52-4.66c2.79-.42,4.22-1.64,4-5A28.38,28.38,0,0,1,365,164.83c1.3-1.69,2.29-3.62,4.2-6.72-23.27,6.47-42.61,4.42-56-16.87l-12.67,3c3.15,17.13,6.22,33.86,9.44,51.37m-5.09-1.45c-1.44-8.51-2.69-16.78-4.3-25s-2.37-16.75-5.08-24.86l-66.76,28.32c1.3,6,2.52,11.66,3.74,17.28l72.4,4.23m88.06,11c6.34.19,12.56-1.52,18.65-3.78,12.31-4.58,21.7-12.58,27.19-24.57,1.84-4,3.33-8.38,2.27-13.21a23.91,23.91,0,0,0-21.05-18.87c-16.31-1.83-30.91,3.09-43.34,13.5-6.68,5.59-10.77,11.8-11.62,20.86-.36,3.8-.83,5.33.38,10.43,1.16,4.92,5.2,9,9.25,11.19a35.8,35.8,0,0,0,18.27,4.45M339.38,152a35.58,35.58,0,0,0,16.61-5.2c11.55-7.88,17.73-19,19.39-32.72,1.06-8.69-.15-17-4.8-24.61-5.23-8.66-16.66-14.65-27.35-11.75-12.81,3.47-20.67,12.14-25.27,23.9-3.88,9.92-5.19,20.49-2,30.78,4.19,13.48,9.93,19.7,23.4,19.6m71.28-19.68c.62.15,1,.37,1.34.3,1.67-.36,3.33-.77,5-1.21a151.37,151.37,0,0,1,37.75-5.25c15-.11,29.4,2.62,43.86,6.34a245.21,245.21,0,0,1,55.81,21.35,13.49,13.49,0,0,0,9.22,1.56q26.14-4.44,52.32-8.7c15.76-2.56,31.56-4.93,47.32-7.51q37.11-6.09,74.18-12.35c4.82-.81,9.61-1.82,15-2.84-3.13-17.28-4.82-34.43-8.59-51.3-5.47.93-10.33,1.78-15.18,2.59-21.56,3.63-43.11,7.31-64.68,10.84-19.7,3.22-39.44,6.2-59.14,9.42-22.51,3.67-45,7.55-67.49,11.24-21.76,3.57-43.55,7-65.31,10.53-17.08,2.8-34.13,5.88-51.24,8.47-4.61.7-7.53,3-10.11,6.52M331,77.59c2.34-1.1,4-1.92,5.67-2.67,16.52-7.32,33.49-1.15,41.31,15.15,4.81,10,5.25,20.52,2.37,31.16-4.29,15.82-13.37,27.55-29,33.65a19.22,19.22,0,0,0-2.56,1.66c6.88.22,12.66-.32,18.11-2.61a137.55,137.55,0,0,0,39.77-25.38c10.17-9.28,20.87-17.75,33.51-23.38a46.8,46.8,0,0,1,30.1-3.06,8.42,8.42,0,0,1,3.57,1.36,1.13,1.13,0,0,1-.65,2c-8.47,0-16.9-1.39-25.19,1.34s-15.79,6.22-22,12.48c10.39-1.23,20.63-2.91,30.87-4.57q15.76-2.58,31.53-5.13l30.89-5.06c10.51-1.71,22.17-3,32.71-4.35,12.1-1.62,19.42-2.28,29.82-5.33a39,39,0,0,0-2.19-4.16,150,150,0,0,0-46.14-42,180.88,180.88,0,0,0-27.85-13,168.9,168.9,0,0,0-43.74-10,172,172,0,0,0-35.93.44,164.76,164.76,0,0,0-47.76,12.49c-14,6.05-25.9,15.14-36.82,25.57-3.89,3.71-7.87,7.51-10.44,13.36m51.34,133.17a51.93,51.93,0,0,0,4.53,3.23,137.4,137.4,0,0,0,42.25,15.14c16.49,3.14,33.31,3.16,50.06,3.58,7.78.19,15.58.82,23,3.62s11.8,8.29,13,16a46.8,46.8,0,0,1-2.49,23.5c-6.63,18.32-11.2,37.13-12.69,56.6-.78,10.23-1.28,20.49-2,30.73-.16,2.54,1.21,6.94-1.15,7.67s-3.62-2.19-3.8-4.74c-.33-4.69-.25-9.43-.11-14.14a228,228,0,0,1,6.24-48c2.68-10.83,4.52-21.86,8.44-32.42A45,45,0,0,0,510.1,257c.13-6.69-2.53-12.17-9.29-14.94a60.89,60.89,0,0,0-20.44-4.74c-8.94-.42-17.89-.55-26.8-1.22-15.95-1.18-31.74-3.46-47.12-8-10.67-3.15-20.74-7.52-29.69-14.25a54.36,54.36,0,0,1-15.88-19.18,60.15,60.15,0,0,1-.31,28.79,4.71,4.71,0,0,0,1.2,4.64L373,241.63a48.4,48.4,0,0,1,22.16-3.26c9.4.63,18.52,2.32,26.46,7.87,2.29,1.59,8.67,5.94,6.66,8.3s-5.3-1.79-6.4-2.72c-12.05-10.13-26.27-10.11-40.67-8.5-5.82.66-6,1.52-4.08,7.05a50,50,0,0,1,2.77,24.1c-2.3,16.09-12.82,28.19-28.5,32-4.55,1.1-9.34,1.14-14,1.66-2.31,12.48,7.9,34.24,19.05,40.36.65-1.58,1.24-3.17,1.95-4.69,3.27-7,8.65-11.93,16.08-13.46a34.3,34.3,0,0,1,40.49,25c.32,1.32.65,2.64,1.16,4.73a25.15,25.15,0,0,0,1.68-2.58c4.56-10.67,2.32-21.06-3.67-29.92-7.86-11.62-16.5-22.85-27.49-31.93-1.46-1.21-3.55-2.77-3.46-4.71.15-3.25,4.09-1.23,5.59.24l6.95,6.77c8.07,7.81,16.25,15.52,24.19,23.46,6.32,6.31,12.78,12.56,18.43,19.45,10.53,12.85,18.41,27.47,26.32,42,5.64,10.36,11,20.87,17,31.07,3.91,6.73,8.68,12.95,12.85,19.54,9,14.24,19.37,27.29,33.06,37.37,9.81,7.21,19.64,14.36,28.5,22.77,3.43,3.26,7.08,6.29,10.43,9.26,10.79-4.47,127-88.53,138.68-97.45-.47-.77-.93-1.57-1.43-2.36-8.43-13.4-16.11-27.19-20.74-42.44-2.15-7.09-3.44-14.46-5.93-21.42-7.71-21.54-12.16-44-18.82-65.81-3.66-12-7.35-24-11.41-35.84-2.2-6.46-5.75-12.48-7.73-19-5.76-19-13.71-37.1-22.14-55-1.83-3.89-4.17-7.55-6.35-11.44-15,2.92-29.76,4.5-44.43,7.51,10.37,8.09,20.35,15.65,30.06,23.54,10.53,8.55,19.53,18.65,28.14,29.09,1.6,1.95,4.2,6.54,1.61,7s-3.72-1.47-4.47-2a11.16,11.16,0,0,1-2-2,225.46,225.46,0,0,0-26.06-27.1,223.77,223.77,0,0,0-96-50.69c-13.51-3.24-27.06-6.49-41.05-6.42a158.73,158.73,0,0,0-32.28,3.57c-3.42.73-6.74,1.91-10.81,3.09,5.79,1.38,10.74,2.07,15.32,3.78,6.51,2.43,12.13,6.26,15.46,12.81,6.26,12.29,3.39,23.68-4.61,33.54-14.51,17.9-33.69,25.21-57.13,23m328.55,191,10.53-7c7.31-4.81,14.66-9.56,21.9-14.47,2.19-1.49,3.53-1.57,5.94.15,3.47,2.49,5.36,5.92,7.35,9.29q15.75,26.83,31.22,53.84,21.3,37.11,42.46,74.32c2.37,4.14,4.36,7.12,6.85,11.18,1.17,1.91,2.75,5,.19,6.44s-3.79-.67-4.9-2.55c-3.47-5.9-7-11.77-10.42-17.69q-27.75-47.92-55.45-95.87c-6.44-11.17-12.68-22.46-19.34-34.29-4.2,2.69-8.38,5.18-12.36,7.95q-33,23-65.92,46.2c-12.94,9.08-25.81,18.24-38.78,27.27-14.35,10-28.71,20-43.21,29.76-10.72,7.24-21.67,14.13-32.52,21.18-1.09.71-2.1,1.55-3.59,2.66,2.54,4.79,5,9.44,7.48,14.11,1.31,2.51,1.68,5.49-.84,6.39s-3.17-1-3.76-2.38c-2.38-5.39-4.46-10.92-6.76-16.35-1.13-2.67-1-4.43,1.86-6.13,4.2-2.52,8.05-5.64,12.73-9-7.95-6.93-15.1-13.74-22.84-19.81-16.24-12.74-31.47-26.49-44.2-42.8-3.62-4.63-6.36-9.92-9.73-14.75-12.25-17.56-20.63-37.27-31.21-55.74-8.32-14.52-16.5-29.23-28.82-41l-3-2.85c.51,2.43.68,3.75,1.07,5a38.79,38.79,0,0,1,1.82,17.43c-1.88,13-11.25,21.43-24.4,22.06-12.7.6-24-3.59-34.37-10.49-11.7-7.81-21.52-17.5-28-30.26-3.67-7.24-6.14-14.74-5.93-23,0-1.13,0-2.26,0-3.39a13.35,13.35,0,0,0-2.18-1.12c-17.21-5-28.51-16.71-36.83-32a77.28,77.28,0,0,1-9.5-38.88,12.08,12.08,0,0,0-1-5.48,69.17,69.17,0,0,1-7.87-31.24c0-.34-.26-.67-.57-1.42-7.35-.43-14.89-.88-22.44-1.31-17.83-1-35.68-1.95-53.51-3-14.8-.89-29.59-2.53-44.4-2.7-10.2-.12-20.48,1.23-30.6,2.75a138.12,138.12,0,0,0-45.69,15.61c-19.8,10.8-36.42,25-46.48,45.68C20,276.34,21.2,298.39,34,319.45c9.33,15.39,23.14,26.09,39.11,34.11a137.85,137.85,0,0,0,46.29,13.67c3.78.44,5.7,2.26,7.07,5.53,5.9,14,15.73,24.59,28.71,32.28a87.74,87.74,0,0,0,27.12,10.26,6.32,6.32,0,0,0,3.05-.2c-9.48-6.68-17-14.85-20.33-26-2-6.75-3.27-13.69-2.32-21.42,3.24-.68,6.5-1.46,9.79-2.05,25.63-4.56,48.74-14.6,68.77-31.42a97,97,0,0,0,17.62-19.35,21,21,0,0,1,1.69-1.92c2.26.26,3.12,1.42,2.53,3.18a19.15,19.15,0,0,1-2.62,5.64,118,118,0,0,1-27,25.3c-20,13.69-42.39,21.16-66.5,25.44a42.68,42.68,0,0,0,6.33,23.24,44.68,44.68,0,0,0,21.38,18.23c3,1.3,6.78,1.83,9.06,4.18s-3.53,3.19-5.65,3.15c-17.92-.34-34.51-5-49.56-15a73.72,73.72,0,0,1-25-28.43c-2.48-4.85-5.56-6.62-11.15-6.66-9.57-.08-18.67-3.46-27.59-6.71-14.62-5.33-28.11-12.84-39.58-23.4-13.8-12.7-23.1-28.06-25.9-47-3.18-21.51,3.41-40.31,16-57.22,13.86-18.68,32.54-31.25,53.89-40a167.18,167.18,0,0,1,48.45-12.26,186.22,186.22,0,0,1,42.14,1,11.68,11.68,0,0,0,6.57-.81c11.71-5,23.56-9.66,35.31-14.56q32.13-13.41,64.21-27a71.38,71.38,0,0,1,21.55-5,26.54,26.54,0,0,0,4.06-1.05,24.87,24.87,0,0,0-.34-3.51c-3.75-14.79-.61-28.77,5.61-42.12a111.3,111.3,0,0,1,20.92-31.13C349.27,48.58,363,39.81,378.11,33.18a165.3,165.3,0,0,1,79.67-13.42c30.34,2.25,58.59,11.1,84.09,28,15.56,10.3,29.1,22.72,39.74,38.16,1.6,2.34,3.43,4.52,5.51,7.24,53-8.66,103.8-17.79,158.54-25.68,2.79-.41,2.54,3.27,2.79,4.88q2.91,18.6,5.68,37.22c.65,4.33,1.18,8.67,1.77,13,.65,4.77-.35,6.23-4.94,7-13.89,2.24-27.79,4.43-41.68,6.68-17.83,2.9-35.64,5.87-53.46,8.77-12.57,2-25.16,4-37.74,6.06-.71.12-1.41.35-2.45.62,3.42,6.63,7.12,12.85,9.94,19.45,6.89,16.08,13.6,32.24,19.95,48.54,4.76,12.22,9.19,24.6,13.15,37.11,3.38,10.7,5.83,21.69,8.78,32.53,5.8,21.3,11.13,42.71,18.58,63.53a227.88,227.88,0,0,0,22.45,46.11,27.36,27.36,0,0,0,2.4,2.79"/></g></svg>