<svg xmlns="http://www.w3.org/2000/svg" viewBox="0 0 656.61 658.29"><defs><style>.ae4ae9f6-4ca8-438b-9bd2-3ab055ed540a{fill:#bbae80;}.f71572cd-c135-4270-bdcb-63604cd9a189{fill:#d3d4e8;}.b09be487-2d24-4816-a432-918401193c0f,.ba723613-f4ce-4080-8a7c-6fd78e7c0a55{fill:#151a4c;}.b56fbbb0-d454-4478-af50-ba61a45ad266,.fe371aab-85ea-4db6-b766-740674feb9e2{fill:none;}.e4d08592-69a1-4ec4-a5b3-02aa20d4218d{fill:#141a4d;stroke:#171a4d;stroke-width:2px;}.b09be487-2d24-4816-a432-918401193c0f,.b56fbbb0-d454-4478-af50-ba61a45ad266,.e4d08592-69a1-4ec4-a5b3-02aa20d4218d{stroke-miterlimit:10;}.b09be487-2d24-4816-a432-918401193c0f,.b56fbbb0-d454-4478-af50-ba61a45ad266{stroke:#151a4c;}.b56fbbb0-d454-4478-af50-ba61a45ad266{stroke-width:4px;}.b09be487-2d24-4816-a432-918401193c0f{stroke-width:3px;}</style></defs><g id="b0390a25-9fbd-4200-b245-86a74364ae64" data-name="Layer 2"><polygon class="ae4ae9f6-4ca8-438b-9bd2-3ab055ed540a" points="287.13 184.44 273.24 203.96 264.61 221.61 260.1 241.13 258.71 248.94 266.86 261.4 272.87 268.91 284.88 277.17 295.19 277.03 319.42 280.17 314.54 228.37 302.52 215.23 294.64 194.96 294.29 188.48 287.13 184.44"/><path class="ae4ae9f6-4ca8-438b-9bd2-3ab055ed540a" d="M415.14,189.32l-4.5,14.27a56.78,56.78,0,0,1-15.39,25.9h0L390,248.26l24,29.66,8.26-.38,10.13-10.13,8.26-15.77,1.88-21.77L438,213.35l-11.26-16.89Z"/></g><g id="eab051b5-9e01-4513-81bd-57aa04ed08b1" data-name="Layer 1"><polygon class="f71572cd-c135-4270-bdcb-63604cd9a189" points="193.21 336.25 141.69 352.56 102.58 367.51 92.22 384.77 117.87 468.13 122.39 627.14 209.34 594.99 284.62 639.29 347.36 600.22 405.08 640.49 462.17 608.47 466.79 583.15 450.28 584.81 427.72 580.96 422.76 572.7 427.09 559.09 411.2 559.49 403.03 553.07 412.47 536.65 402.71 531.23 401.3 521.52 408.45 513.81 420.56 508.31 406.95 503.95 405.7 491.25 416.2 480.5 474.53 484.28 480.55 469.78 490.45 343.75 351.21 334.4 275.82 374.57 203.17 332.75 193.21 336.25"/><path class="ae4ae9f6-4ca8-438b-9bd2-3ab055ed540a" d="M356,23.85s19.49-3.71,29.7-1.86,33.41,10.22,41.76,23.2,19.49,45,19.49,78l-2.32,3.24-8.35-2.32-8.82,3.71h-4.18l-.92-9.75-4.18-20.41-9.28-15.31L395,74.63l-13-4.38-17.16,4.38L356,79.07l-10.21-2.32-12.53-6.5-13.92-.47L305,77.22s-10.67,9.28-12.52,23.2-4.65,21.34-6.5,27.37-8.36-2.31-8.36-2.31l-10.67-4.18V87.89l6.5-21.81L279,54.48s8.81-19.5,23.2-24.14,17.17-8.87,53.83-6.49"/><path class="ba723613-f4ce-4080-8a7c-6fd78e7c0a55" d="M441.19,145.18c.06,6.75-3.9,16.67-7.75,22.28-2.18,3.19-4.75,5.53-8.86,4.38-3.88-1.08-4.95-4.55-4.45-7.83,1-6.41,4.43-16.59,6.5-22.7,1.32-3.88,4.31-7.45,9.29-7.1,3.6.25,5.32,4.19,5.27,11"/><path class="ba723613-f4ce-4080-8a7c-6fd78e7c0a55" d="M270.07,134.25c9-3,18.75,20.85,16,30.25-1.25,4.32-3.86,5.84-8.13,4.49-7.69-2.43-12.29-13.6-13.76-20.38-1.27-5.8-.76-11.49,5.86-14.36"/><path class="ba723613-f4ce-4080-8a7c-6fd78e7c0a55" d="M365.93,105.26a2.32,2.32,0,0,1-1.71-4c1.72-1.52,4.8-2.57,6.63-3.44,8.55-4,12.33-5.74,21-9.43,1.6-.67,6.91-3.35,8-.31.78,3-1.56,3.5-5.06,5.5l-.29.14c-8.11,3-22.32,11-28.6,11.55"/><path class="ba723613-f4ce-4080-8a7c-6fd78e7c0a55" d="M349,206.48a3.55,3.55,0,0,1-2.16,4.66,5.92,5.92,0,0,1-2.17.29c-3.7,0-8.41-1.94-8.13-5.38s2-3.9,3.89-4.29c3-.5,7.38,1.74,8.57,4.72"/><path class="ba723613-f4ce-4080-8a7c-6fd78e7c0a55" d="M360.85,132.62a18.62,18.62,0,0,0-.32,9.74c1.26,5.24,7,12.64,10.11,17.93,8.16,13.79,1,20.67-10,21.08-5.52.21-11.53.49-16.95-3.63-2.73-2.05-4.14-3.89-5.77-2.48-2.44,2.11,2.38,6.1,6.67,8,6.6,2.89,15.23,2.69,22,1,10.9-2.7,15-10.62,9.92-20.7-3.09-6.15-8.3-12.78-10.9-19.14-1.07-2.6-2.29-4.87-1.89-9.85a2.48,2.48,0,0,1,2.69-2.53c1.48.2,2.5.3,3.78.49,12.57,1.89,24.48.27,35.49-6.51,8.23-5.07,7.92-6.87-.25-12.25-10-6.49-22.82-7.89-33.51,1.27C366.17,120,362.34,127.72,360.85,132.62Zm24.64-14.56c-5.63,1.82-7.91,6.5-7.91,11.91a43.66,43.66,0,0,1-8.09-.69c-3.72-.56-.89-4.72-.89-4.72,11.27-15.62,26.47-14.76,38.75-5.18,1.41,1.19-4.11,4-9.62,6.84C393,115.72,385.49,118.06,385.49,118.06Z"/><path class="ba723613-f4ce-4080-8a7c-6fd78e7c0a55" d="M344.28,119.38a35.73,35.73,0,0,0-4.94-4.46,30,30,0,0,0-34-1.64c-6.87,4.14-7,8.76.07,12.56,8.32,4.45,17.24,7.4,29.14,6.6,0,0,1.82-.1,3.08-.19,4.42-.31,11.05-1.18,11.43-3.81C349.33,124.67,346.8,122.5,344.28,119.38Zm-29.77,7.12c-6.46-2.76-11.65-5.54-10.22-6.75,6.63-8.81,27.38-12.86,39.5,6.14,0,0,1.8,2-1.11,2.54a53.33,53.33,0,0,1-7.63.71c-.28-4-1.84-10.17-8.58-11.21C318,116.63,314.51,126.5,314.51,126.5Z"/><path class="ba723613-f4ce-4080-8a7c-6fd78e7c0a55" d="M356.93,23.66C307.9,9.77,282,46.08,282,46.08L277,53.73a24.61,24.61,0,0,0-17.55-7.92,82.26,82.26,0,0,0-32,4.85C203.2,59.54,185.34,73.57,169.1,93.6c-2.42,3-4.53,7-7.73,8.44-16.29,7.47-30.67,17.77-44,29.41-12,10.45-23.1,21.85-34.4,33-30.77,30.47-54.52,65.43-67,107.27C8,298.21,5,325.12,9.88,352.62,14.8,380.5,26.07,405.23,45.5,426a152.44,152.44,0,0,0,64.63,41.18,6.84,6.84,0,0,1,4.75,6.26c1.55,50,3.11,100,4.69,150.74a4.81,4.81,0,0,0,6,4.52c.76-.21,1.47-.43,2.16-.68,24.71-9.27,49.42-18.51,74-28,4-1.53,7.24-1.84,10.93.55,5.53,3.59,11.3,6.81,17,10.21,16.2,9.73,32.46,19.36,48.55,29.27,4.42,2.72,8.09,2.76,12.39-.19,7.92-5.43,16.13-10.44,24.19-15.66,9.37-6.05,18.72-12.13,28-18.16a4.88,4.88,0,0,1,5.33,0l51.08,33.46a11.32,11.32,0,0,0,11.64.65l.11-.06q22.63-13,45.14-26.2c9.88-5.4,10.36-10.51,10.8-22.48a20.11,20.11,0,0,1,.19-4.73c6.22,2.58,13.45,4.9,19.06,7.55,25.57,12,52.29,19.11,80.67,19.81,16.47.41,32.34-1.45,47.23-9,22.72-11.55,34.43-30.92,36.18-56.33a94.63,94.63,0,0,0-3.11-30.18c-8-30.61-23.28-57.31-41.3-82.48-20.17-28.17-43.69-53.31-69.05-76.87-27.35-25.43-57-47.74-88-68.5-6.65-4.46-14.62-10.12-20.55-14.48,0,0,16.12-15.48,16.43-37.93.19-14.1-5.75-25.52-12.33-37-2.63-4.58-8.27-9.16-10.7-12.49a28,28,0,0,0,14.58-8.52c14-15.1,19.52-32.57,13-52.86a9.26,9.26,0,0,1-.73-2.54c0-7.4.58-14.86-.05-22.21-1.34-15.63-4.29-28.91-10.6-43.29C413.94,4.84,356.93,23.66,356.93,23.66ZM470.68,354c.59-.42,1.32-1,2.17-1.67a4.2,4.2,0,0,1,6.8,3.28c-.1,43.52-3.91,87.39-5.12,128.64-19.58-1.27-40.23-2.53-60-3.82a75.89,75.89,0,0,1,.09-7.79c.65-25.21.73-50,1.39-75.18a11.26,11.26,0,0,1,5.17-9.77C437.16,376.57,454.69,365.2,470.68,354ZM418.33,503.88c-3.85.51-9.74-2.6-10.21-8.54-.18-7,4.2-9.12,8.73-9.46,4.86-.37,10.39,2.41,10.9,8.85C427.8,501.47,422.56,503.32,418.33,503.88Zm5.57,17.26c-.37,5.76-3.14,9.86-10.74,10-7.27.1-10.34-4.66-9.31-10.25,1.36-5.54,7.15-8,11.33-7.9C419.59,513.07,424.13,516.76,423.9,521.14ZM440,241.53c-1.49,21.67-16.48,31.75-16.48,31.75s-11.06-9.48-17.21-17.88a55.47,55.47,0,0,1-10-23.38c5.46-6.12,6.73-7.5,10.78-14.91,4.37-8,7.13-17.9,8.3-22.23,1-3.63,4.08-4.52,6.52-.28C432.46,209.06,441.21,223.78,440,241.53ZM359.12,30.44c0-7.44,23.86-6.56,31-5.66,16.5,2.93,32.14,14.19,42.13,32.11,8.82,15.82,12.84,42,11.51,65.15a1.27,1.27,0,0,1-2,.95c-3.68-2.15-7.91-.63-12.87,2.37-8.38,5.34-5-12.46-9.5-26.44C415.75,85.74,405.08,70.8,383,69c-16.23-1.32-23.33,10.6-23.48,4.29C359,54.82,358.37,38.79,359.12,30.44ZM353.69,81a5.73,5.73,0,0,0,5.92-.67c5-3.92,16.85-10,35.24-3.79,20,6.75,23.6,37.14,23.6,37.14a77.28,77.28,0,0,1,1.13,9.63c.63,7.62,6,9.71,12.15,5.52,7.9-5.36,20.19-.79,14.78,22.75-7.16,31.14-26.9,33.12-26.9,33.12-6.9.56-6.92,3.84-8.84,10.4-3.88,13.34-5.64,20.16-14.9,30.84s-19.64,17.5-38.69,17.79C328.8,243.24,315.87,231.8,305,214c-4.76-7.8-7.8-16.78-10.72-25.54-1.88-5.61-2.58-8.86-8.55-8.58-12.68,1.62-21.74-10-25.13-21.49-1.61-5.47-5.25-15.1-2.1-24.48,2.27-6.8,11.75-12.82,18.95-5.65,8.5,7.37,10.4,1.59,12.12-8.69s3.4-20.45,9.19-29.77C298.77,89.82,311.56,62,353.69,81ZM295.19,277c-23.35-4.41-28.05-17.57-31.34-27-2-5.64-1.54-15.83.77-22.43,5.37-15.32,21-35.42,21-35.42s3.86-5.56,4.94-.19,7,24.81,19.62,37C308.48,261.59,295.19,277,295.19,277ZM286.86,48.1a58.08,58.08,0,0,1,36.22-22.39c8.28-1.54,17.8-2.05,25.83-.37,3.23.67,6.28,1.29,6.24,9.65l.36,37.19c.23,6.37-7,.23-17-1.65-14.18-2.66-20.81-2.1-33.75,5.4-5.43,3.15-10.23,10.49-13,17.19-4.1,10-4.89,15.4-5.34,26.55-.09,2.44-.16,9.75-7,4.73a12.59,12.59,0,0,0-3.28-1.74c-5.66-2-7.36,0-7.83-8C266.8,87.51,270.66,69.55,286.86,48.1Zm-35.32,7.47c1-4.57,4.56-6.29,9-5.83,7.56.78,16.09,5.1,10.62,13.5-2.69,5-12.44,3.78-16.66-.15C252.76,61.46,250.71,59.47,251.54,55.57Zm-.44-6c-7.51,8.31-2,17,9.1,19.58-3.46.41-1.3.27-4.14.49-5.52.81-7.54.84-14.17,1.73a64.13,64.13,0,0,0-7.69,1.75c-1.44.47-5.34,1.52-5.44,3.91.17,2.41,4.52.36,7.8.09,0,0,9.77-.58,11.59,4.37s-1.43,7.24-7.07,8.15-5.09,5-1.66,5.37c5.36.54,9.82,2.22,10.38,4.8.94,4.3.42,7-9.31,8.84-3.13.6-3.28,5.1,3.53,5.39,7.93.34,8.28,7.35,3.32,9.89-6.69,3.44-13.91,0-13.47,3.91.33,2.87,7.6,2.34,7.78,8.28.23,7.91-20.9,11.79-27.13,12.24-7.88.56-13.21-1.73-10.88-7.81,2.93-7.63,12.46-9.23,15-8.91,6.2.78,6.2-1.32,2.6-2.44-3.87-1.2-8.13-.81-17.47,3.42-9.67,4.39-18,16.53-18,16.53-1.46,1.35-3.37-4.83-4.11-6.66-2.6-6.37-4.49-13.15-6.93-18.29-.78-1.62-1.57-3.28-2.33-4.84-8.2-16.83-4-17.29,1.77-24.47C189.61,75.59,203.75,65.17,226.84,55A72.35,72.35,0,0,1,251.1,49.53ZM204.94,594.34c-24.91,9.28-50.47,19.92-75.64,29.24-5.5,2-4.73-.76-4.86-3.18-.29-5.06-.6-12.16-.71-16.84-.66-29.12-2.52-59.31-3.21-88.42q-.76-32.4-1.81-64.77-1.3-38.56-3-77.1c-.22-4.86,1.39-8.09,5.6-10.19,1.34-.67,2.69-1.34,4.08-1.87,19.87-7.68,42.43-15.88,62.35-23.43a39.34,39.34,0,0,1,5.46-1.53c2.79-.61,6.06-2.51,5.95,4.09,0,.69.17,1.34.19,2,.65,21.9,1.13,43.8,1.87,65.7,1,30.84,2.27,61.67,3.39,92.51.68,18.59,1.28,37.19,2,55.78.4,10.46.91,23.33,1.36,33.5A4.61,4.61,0,0,1,204.94,594.34Zm70.34,39.07c-6.33-3.91-15.15-10-21.1-13.54-11.34-6.75-24.08-14.7-35.47-21.36-4.29-2.51-6.1-5.51-6.24-10.77-1.17-44.7-2.68-90.5-4.21-135.19-1.07-31.49-3-59.91-4.24-91.4-.28-6.83-.28-7.11-1-18.31-2.1-13.09,8.49-2.67,10.06-1.65,18.38,11.92,34.76,22.87,53.1,34.84,1,.66,2,1.37,3,2,5.81,3.49,8,8.13,8,15.35.07,65.18,2.28,130.51,2.68,195.7.07,12.09.15,28.88.35,41.93C280.31,637.83,280.19,636.44,275.28,633.41ZM217,130.32c-7.27.14-16.07,5.36-17,12-.74,5.48,4.47,12.25,24.56,8C256.08,143.7,242,129.18,242,129.18c5.59-.93,12.35-2.45,11.77-10.36-.71-9.63-10.11-8-10.11-8,8.78-.37,10.89-5,9.91-11.48-1.1-7.16-10.18-7.05-10.18-7.05s8.91.41,9-8.5c.08-11.71-14.84-9.49-14.84-9.49,1.28,0,1,1,12.7-.1,12.9-1.18,18.26-1.93,18.26-1.93-.93,3.34-3.2,13-3.35,15-.74,10.12-.92,16.69-1.15,26.83-.13,5.61.1,7.17-3.12,9.31-5.9,3.28-7.87,18.84-6.13,27,5.1,23.8,15,33.47,28.7,34.32-4.72,8.87-13,17.35-17.2,26.47-5.51,12-10.44,24.72-7.55,37.73,2.25,10.14,7.47,19.63,16.49,24.95a56.72,56.72,0,0,0,16.46,7.33c-4.53,9.6-11.55,16.09-16,20.94-14.52,16-24.27,24.78-50.87,41.16l-15-9.16c-11.22-6.51-8.62-6.85-33,2.72-5.9,2.31-13.88,5.13-19.7,7.67-4.74,2.07-5.61,1.1-9.42-2.92-7.28-7.67-8.93-17.44-11.57-26.76-8.49-29.89.25-56.82,15.39-82.37,8.77-14.79,20.34-27.41,32.12-39.8,2.24-2.36,5-4.22,8.25-6.58a4.55,4.55,0,0,0,1.65-5.1c-1-3-4.32-17.6-5.65-24.56,4-12,10.49-14.7,12-16.08C205.67,135,217,130.32,217,130.32ZM343.68,597.4a4.58,4.58,0,0,1-2.07,3.75c-15.68,10.19-31.67,21.5-49.16,32.82-8.58,6.36-7.33,3.6-7.22-2.66,0-1.95-.06-5.58-.09-7.19q-.9-53.05-1.84-106.11-.75-38.24-1.8-76.48c-.43-16.56.4-33.53.28-50.63a7.6,7.6,0,0,1,2.68-5.58c19.75-13,39.18-23.91,60.06-37.69A2.9,2.9,0,0,1,349,350.1Q346.42,474.44,343.68,597.4Zm68.79-60.75c-8.65,2.23-10.23,13.53-9.44,16.42,2.6,9.53,1,29.48.93,39-.14,15.29.2,26.67-.41,42,0,.46-.06.92-.11,1.44-.19,1.93-3.66-1.09-5.34-2.06-3.12-1.79-5.9-3.37-8.56-5.12-12-7.92-23.9-16.08-36-23.84-3.53-2.27-5.59-5.2-5.45-9.18.6-17.09,1.39-36.53,1.85-53.62.15-5.68.24-11.38.34-17.06.64-34.83,1.21-69.65,1.92-104.48.45-21.9,1.11-43.79,1.71-65.69v-.83c.08-2.29-.65-7.52,4.61-1.34,7.08,6,15.3,10.89,22.18,16.08,8.59,6.47,17,13.22,25.71,19.51,4.28,3.09,6.25,6.56,6,12-.93,20.08-1.53,40.19-2.11,60.28-.22,7.51,0,15,0,22.08-5.85,5.92-6.61,9.3-6.15,13.57A17.2,17.2,0,0,0,407,504a12.19,12.19,0,0,0,7.32,4.91c-4.1.52-8.27,2-9.69,3-5.81,4.09-7.92,10.94-4,16.89C402.89,532.19,404.43,533.73,412.47,536.65Zm-5.54,12.47c.82-8.83,10.48-9.14,15-7.84,4.27,1.12,7.77,4.1,8,7.8s-4.42,6.51-8,7.59C414.78,558.85,406.31,555,406.93,549.12Zm24.95,14.81c6.87-1.86,11.25,5,11.14,7.89-.13,3.13-2.23,7.7-6.87,8.44-6.31.74-10-1-11.69-4.92C422.6,571.63,425.2,566,431.88,563.93Zm31.43,25.81c-1.49,18.8,1.74,13.86-14.2,23.41q-16.56,9.93-33.22,19.7a47.3,47.3,0,0,1-4.45,2.22,1.56,1.56,0,0,1-2.21-1.41l-1.62-75.6c2.6,4.22,15.55,4.66,20.05,2.46a24.63,24.63,0,0,0-6.17,5.82c-5.18,9.79-1.09,17,10.19,18.78,8.22,1.31,16.66,1.14,25,1.58,2,.11,4.89,0,6.72,0C463.73,587.36,463.33,589.52,463.31,589.74Zm38.87-39c-3.63,10.67-9.83,20.21-20.26,25.2-11.1,5.31-26.42,7.44-39.12,5.74,2.85-2.69,7.9-16.35-3.37-20.28,10-2.15,19.91-.3,19.27-3.7-.1-3.84-23.8-1.77-28.12-1.24,6.5-6.31-.37-17-5-18.84l1.11.28c.88-.12,6,.32,8.26.18,3.81-.09,9.56.37,14.2.47,3.35-.1,3.7-.56,3.9-2.51s-4.41-2.06-5.75-2.41c-4.45-.56-6.93-.05-10.85.07-4.49.14-12.57-.18-15.91-.47,11.36-5.7,9.35-18.93,4.11-22.35,6.88-.95,28.88,5.84,30.44,2.27,0-5.23-18.77-3.86-28.06-8,4.34-5.58,5.22-11.89,2.05-19.3,13.6,1.67,26.74.6,39.16,2.09,1.78.22,3.59.24,5.38.32,4.38.18,5.67-1.22,5.76-5.94.06-3.21-.19-4.64-.19-10,2.74,1.75,10.25,7.48,11.45,9.12C506.76,503.52,511.29,523.91,502.18,550.69Z"/><polyline class="fe371aab-85ea-4db6-b766-740674feb9e2" points="7.54 19.93 7.54 642.1 650.45 642.1 650.45 19.93"/><path class="e4d08592-69a1-4ec4-a5b3-02aa20d4218d" d="M300.83,102.75c-.83-1,.23-3,1-3.72a18.74,18.74,0,0,1,5.32-3.61c13.1-5.67,25.24-3.75,37.2,3a12,12,0,0,1,2.06,1.56c.77.88,1.74,2.23.89,3.22s-2.69.56-3.38,0a21.9,21.9,0,0,0-1.95-1.29Q324.88,91.66,307,100.74c-1.24.63-2.48,1.27-3.75,1.85C303,102.74,301.66,103.74,300.83,102.75Z"/><path class="ba723613-f4ce-4080-8a7c-6fd78e7c0a55" d="M202,143.62s14.76-6,19.55,3.91l4.56-.24s-6.74-13.24-23.15-7.39Z"/></g><g id="ba7ee25c-40b9-44e8-9977-73ccc2b2ab3a" data-name="Layer 3"><ellipse class="b56fbbb0-d454-4478-af50-ba61a45ad266" cx="324.86" cy="150.99" rx="25.84" ry="17.6"/><ellipse class="b56fbbb0-d454-4478-af50-ba61a45ad266" cx="395.34" cy="150.99" rx="25.27" ry="17.6"/><path class="b09be487-2d24-4816-a432-918401193c0f" d="M352.18,152.42a20.68,20.68,0,0,1,6.34-1.27c4.82-.36,5.83.39,8.36,1.23s2.83-.92,1.32-1.65-6.24-3-14.84-.61a10.55,10.55,0,0,0-2,.74,3.93,3.93,0,0,0-.87.46C349.84,151.76,349.8,153.38,352.18,152.42Z"/></g></svg>